<svg width="24" height="24" fill="none"
    xmlns="http://www.w3.org/2000/svg">
    <path d="M22.666 16.904c-.736 0-1.333.54-1.333 1.204v.61a1.363 1.363 0 0 1-1.362 1.369H4.029a1.364 1.364 0 0 1-1.362-1.368v-.61c0-.667-.597-1.207-1.333-1.207-.737 0-1.334.542-1.334 1.206v1.979c0 1.332 1.194 2.412 2.667 2.412h18.666c1.473 0 2.667-1.08 2.667-2.412v-1.979c0-.666-.597-1.206-1.334-1.206" fill="#fff"/>
    <path d="M19.542 8.373a1.336 1.336 0 0 0-1.893 0l-4.067 4.089V1.59C13.582.711 12.873 0 12 0c-.873 0-1.581.711-1.581 1.59v10.872L6.351 8.373a1.335 1.335 0 0 0-1.893 0 1.35 1.35 0 0 0 0 1.902l6.648 6.681a1.261 1.261 0 0 0 1.788 0l6.648-6.681a1.35 1.35 0 0 0 0-1.902z" fill="#fff"/>
</svg>