<svg width="185" height="110" fill="none" xmlns="http://www.w3.org/2000/svg"><mask id="a" style="mask-type:alpha" maskUnits="userSpaceOnUse" x="0" y="0" width="185" height="110"><path fill="#F8F7F6" d="M0 0h185v110H0z"/></mask><g mask="url(#a)"><path fill="#E5E5E5" d="M-1-1h213v112H-1z"/><rect x="5.63" y="31.326" width="99.1" height="73.572" rx="1.498" fill="#fff" filter="url(#filter0_d_7569_275699)"/><rect x="108.856" y="31.326" width="99.1" height="73.572" rx="1.498" fill="#fff" filter="url(#filter1_d_7569_275699)"/><rect x="5.63" y="4.873" width="47.899" height="22.32" rx="1.498" fill="#fff" filter="url(#filter2_d_7569_275699)"/><rect x="57.656" y="4.873" width="47.073" height="22.32" rx="1.498" fill="#fff" filter="url(#filter3_d_7569_275699)"/><rect x="108.856" y="4.873" width="99.1" height="22.32" rx="1.498" fill="#fff" filter="url(#filter4_d_7569_275699)"/><path d="M20.046 64.18c0-.827.67-1.498 1.498-1.498h9.391c.828 0 1.499.67 1.499 1.498v5.177H20.046V64.18z" fill="#75C67A"/><path fill="#FFB044" d="M20.046 69.357h12.388v13.35H20.046z"/><path fill="#E76766" d="M20.046 82.708h12.388v7.629H20.046z"/><path fill="#43C2F9" d="M20.046 90.336h12.388v3.814H20.046z"/><path d="M40.535 53.69c0-.827.67-1.497 1.498-1.497h9.392c.827 0 1.498.67 1.498 1.498v4.223H40.535v-4.223z" fill="#75C67A"/><path fill="#FFB044" d="M40.535 57.914h12.388v15.258H40.535z"/><path fill="#E76766" d="M40.535 73.172h12.388v16.211H40.535z"/><path fill="#43C2F9" d="M40.535 89.065h12.388v5.086H40.535z"/><path d="M60.94 57.505c0-.827.67-1.498 1.498-1.498h9.391c.827 0 1.498.67 1.498 1.498v7.084H60.94v-7.084z" fill="#75C67A"/><path fill="#FFB044" d="M60.94 64.59h12.388v10.489H60.94z"/><path fill="#E76766" d="M60.94 75.079h12.388v12.397H60.94z"/><path fill="#43C2F9" d="M60.94 87.476h12.388v6.675H60.94z"/><path d="M81.507 44.471c0-.827.67-1.498 1.498-1.498h9.391c.828 0 1.498.671 1.498 1.498v2.597H81.507V44.47z" fill="#75C67A"/><path fill="#FFB044" d="M81.507 47.068h12.388v17.4H81.507z"/><path fill="#E76766" d="M81.507 64.468h12.388v25.589H81.507z"/><path fill="#43C2F9" d="M81.507 90.057h12.388v4.094H81.507z"/><path fill="#D9D9D9" d="M13.553 94.151H99.76v.827H13.553z"/><path fill="#E8E5DE" d="M21.308 97.457h9.27v3.307h-9.27zM8.918 35.459h25.955v3.307H8.918zm0 10.746h2.781v3.307H8.918zm0 11.573h2.781v3.307H8.918zm0 11.573h2.781v3.307H8.918zm0 11.573h2.781v3.307H8.918zm0 11.574h2.781v3.307H8.918zm33.034 4.959h9.27v3.307h-9.27zm20.645 0h9.27v3.307h-9.27zm20.648 0h9.27v3.307h-9.27z"/><path fill="#D9D9D9" d="M117.623 94.151h86.207v.827h-86.207z"/><path fill="#E8E5DE" d="M115.464 97.457h5.243v2.996h-5.243zm14.993 0h5.243v2.996h-5.243zm14.993 0h5.243v2.996h-5.243zm14.993 0h5.243v2.996h-5.243zm14.994 0h5.243v2.996h-5.243zm-62.449-61.998h25.955v3.307h-25.955zm0 10.746h2.781v3.307h-2.781zm0 11.573h2.781v3.307h-2.781zm0 11.573h2.781v3.307h-2.781zm0 11.573h2.781v3.307h-2.781zm0 11.574h2.781v3.307h-2.781zM9.109 9H20.05v3.31H9.109z"/><path fill="#D6D3D0" d="M44.444 19.8h3.303v3.307h-3.303zm51.2 0h3.303v3.307h-3.303zm67.501 0h3.303v3.307h-3.303zM173 20h3.303v3.307H173z"/><path fill="#E8E5DE" d="M62.135 9h10.1v3.31h-10.1zm50.496 0h15.15v3.31h-15.15z"/><path d="M75.606 18.975h.746c.238 0 .435-.04.59-.12a.801.801 0 0 0 .344-.35c.077-.151.116-.327.116-.527 0-.181-.036-.341-.107-.48a.722.722 0 0 0-.314-.33 1.076 1.076 0 0 0-.537-.12c-.171 0-.33.033-.475.101a.869.869 0 0 0-.348.286.75.75 0 0 0-.13.446h-1.4c0-.388.104-.725.31-1.013.21-.287.491-.511.843-.673a2.75 2.75 0 0 1 1.16-.242c.478 0 .896.077 1.254.232.358.152.637.377.837.674.2.297.3.665.3 1.104 0 .223-.051.44-.154.649a1.82 1.82 0 0 1-.446.562 2.21 2.21 0 0 1-.696.397 2.764 2.764 0 0 1-.925.145h-.968v-.74zm0 1.061v-.722h.968c.384 0 .721.044 1.012.131.29.087.534.213.73.378.197.161.346.354.445.576.1.22.15.464.15.732 0 .33-.062.623-.188.881a1.847 1.847 0 0 1-.532.65 2.43 2.43 0 0 1-.794.406 3.46 3.46 0 0 1-1.868.015 2.605 2.605 0 0 1-.774-.373 1.918 1.918 0 0 1-.552-.63 1.905 1.905 0 0 1-.203-.906h1.398c0 .181.046.343.136.485a.94.94 0 0 0 .372.334c.162.08.34.121.538.121.222 0 .413-.04.57-.121a.874.874 0 0 0 .368-.349c.087-.152.131-.328.131-.528 0-.258-.047-.465-.14-.62a.833.833 0 0 0-.402-.349 1.574 1.574 0 0 0-.62-.111h-.745zm9.011 1.138c0 .443-.104.816-.31 1.12-.207.3-.49.527-.852.682a3.098 3.098 0 0 1-1.22.228c-.454 0-.862-.076-1.223-.228a1.96 1.96 0 0 1-.857-.683c-.21-.303-.314-.676-.314-1.119a1.773 1.773 0 0 1 .677-1.424 2.27 2.27 0 0 1 .76-.397c.29-.094.606-.14.948-.14.458 0 .868.08 1.23.242.36.161.644.389.85.683.207.294.31.64.31 1.036zm-1.404-.092c0-.216-.042-.402-.126-.557a.849.849 0 0 0-.343-.363 1.033 1.033 0 0 0-.518-.126c-.197 0-.37.042-.518.126a.879.879 0 0 0-.348.363c-.08.155-.121.34-.121.557 0 .213.04.397.121.552.084.155.2.275.348.359.152.08.328.121.528.121s.372-.04.518-.121a.827.827 0 0 0 .338-.359 1.19 1.19 0 0 0 .121-.552zm1.254-3.158c0 .359-.096.677-.286.954-.19.275-.455.49-.794.645a2.713 2.713 0 0 1-1.151.232c-.436 0-.823-.077-1.162-.232a1.902 1.902 0 0 1-.793-.645 1.648 1.648 0 0 1-.286-.954c0-.426.096-.784.286-1.075a1.83 1.83 0 0 1 .793-.669 2.787 2.787 0 0 1 1.152-.227c.436 0 .821.076 1.157.227.338.152.603.375.793.669.194.29.29.649.29 1.075zm-1.394.063c0-.19-.034-.355-.102-.494a.76.76 0 0 0-.29-.33.835.835 0 0 0-.455-.116.87.87 0 0 0-.45.112.74.74 0 0 0-.285.324 1.19 1.19 0 0 0-.097.504c0 .19.032.359.097.504a.792.792 0 0 0 .29.334.83.83 0 0 0 .455.121.76.76 0 0 0 .736-.455 1.18 1.18 0 0 0 .1-.504zm2.613 4.447c0-.207.07-.38.213-.519.145-.139.337-.208.576-.208.238 0 .429.07.57.208a.688.688 0 0 1 .218.519c0 .206-.072.38-.217.518-.142.139-.333.208-.571.208-.24 0-.431-.07-.576-.208a.696.696 0 0 1-.213-.518zm7.568-.417v1.09h-4.82v-.93l2.28-2.446c.229-.255.41-.48.541-.673.133-.197.228-.373.286-.528a1.285 1.285 0 0 0-.014-.998.794.794 0 0 0-.315-.359.94.94 0 0 0-.503-.125.97.97 0 0 0-.552.155.985.985 0 0 0-.348.43 1.597 1.597 0 0 0-.117.625h-1.398c0-.42.1-.804.3-1.152.2-.352.482-.632.847-.838.364-.21.797-.315 1.297-.315.493 0 .91.08 1.248.242.342.158.6.387.774.688.178.297.266.652.266 1.065 0 .233-.037.46-.11.683-.075.22-.181.44-.32.66-.136.215-.3.435-.494.658a15.14 15.14 0 0 1-.643.692l-1.225 1.376h3.02zm-62.252-1.545v1.095h-5.076l-.068-.848 2.938-4.664h1.108l-1.2 2.01-1.462 2.407h3.76zm-.798-4.417v7.052H28.81v-7.052h1.394zm6.373 5.962v1.09h-4.82v-.93l2.28-2.446c.228-.255.409-.48.541-.673a2.64 2.64 0 0 0 .286-.528 1.285 1.285 0 0 0-.014-.998.794.794 0 0 0-.316-.359.94.94 0 0 0-.503-.125.97.97 0 0 0-.551.155.985.985 0 0 0-.349.43 1.597 1.597 0 0 0-.116.625h-1.398c0-.42.1-.804.3-1.152.2-.352.482-.632.846-.838.365-.21.797-.315 1.297-.315.494 0 .91.08 1.249.242.342.158.6.387.774.688.177.297.266.652.266 1.065 0 .233-.037.46-.111.683-.074.22-.18.44-.32.66-.135.215-.3.435-.493.658a15.14 15.14 0 0 1-.644.692l-1.224 1.376h3.02zm5.656-5.962v.75l-2.724 6.302h-1.471l2.724-5.963h-3.508v-1.09h4.98zm115.822 5.991h.092c.387 0 .719-.047.997-.14.28-.097.511-.236.692-.417.18-.18.314-.402.401-.663a2.88 2.88 0 0 0 .131-.901v-1.337c0-.255-.026-.48-.078-.674a1.344 1.344 0 0 0-.212-.479.91.91 0 0 0-.32-.29.818.818 0 0 0-.397-.098.739.739 0 0 0-.411.117.986.986 0 0 0-.305.305c-.08.13-.143.278-.188.445a2.09 2.09 0 0 0-.063.519c0 .18.021.353.063.518.041.162.104.305.188.431a.983.983 0 0 0 .315.296.89.89 0 0 0 .445.106 1.004 1.004 0 0 0 .774-.344 1.08 1.08 0 0 0 .213-.344.994.994 0 0 0 .077-.382l.46.252c0 .226-.048.448-.145.668a2.064 2.064 0 0 1-1.002 1.027c-.225.106-.467.16-.725.16-.33 0-.621-.06-.876-.18a1.919 1.919 0 0 1-.649-.503 2.3 2.3 0 0 1-.397-.756 3.114 3.114 0 0 1-.135-.935c0-.342.055-.663.165-.964.112-.3.272-.565.479-.794.209-.23.459-.408.75-.538.293-.132.619-.198.977-.198s.684.07.978.208c.293.139.545.336.754.591.21.252.371.554.484.906.116.352.174.742.174 1.172v.484a5.2 5.2 0 0 1-.15 1.28c-.096.393-.243.75-.44 1.07a2.997 2.997 0 0 1-.726.813 3.106 3.106 0 0 1-1.001.518 4.26 4.26 0 0 1-1.278.18h-.111v-1.129zm14.491-5.991v.75l-2.725 6.302h-1.471l2.725-5.963h-3.509v-1.09h4.98z" fill="#444"/><path d="M133.123 49.512l-13.972 23.56v21.492H237v-14.88l-45.56 7.44-28.551-18.6-13.972 9.094-15.794-28.106z" fill="#DBF2F3"/><path d="M133.125 82.578l-15.187-4.96v16.946h100.84v-7.44h-27.336l-13.364-14.053-15.187 4.547-13.972 4.96h-15.794z" fill="#FFE7C7"/><path d="M118.507 72.69a.749.749 0 1 0 1.289.763l-1.289-.764zm14.616-23.178l.653-.367a.75.75 0 0 0-1.297-.015l.644.382zm15.794 28.106l-.653.367a.75.75 0 0 0 1.062.26l-.409-.627zm13.972-9.093l.409-.628a.75.75 0 0 0-.818 0l.409.628zm28.551 18.6l-.409.627a.75.75 0 0 0 .53.112l-.121-.74zm-71.644-13.672l13.971-23.56-1.288-.763-13.972 23.56 1.289.763zM132.47 49.88l15.794 28.106 1.306-.734-15.794-28.106-1.306.734zm16.856 28.367l13.972-9.093-.818-1.256-13.971 9.093.817 1.256zm13.154-9.094l28.551 18.6.818-1.255-28.551-18.6-.818 1.255zm29.081 18.712l45.56-7.44-.242-1.479-45.56 7.44.242 1.479z" fill="#12ABB1"/><path d="M118.171 76.906a.75.75 0 0 0-.465 1.424l.465-1.424zm14.954 5.672l-.232.712a.746.746 0 0 0 .232.037v-.75zm15.794 0v.749a.75.75 0 0 0 .251-.043l-.251-.706zm13.972-4.96l-.215-.718a.837.837 0 0 0-.036.012l.251.706zm15.187-4.547l.542-.516a.748.748 0 0 0-.757-.201l.215.717zm13.364 14.053l-.543.517a.75.75 0 0 0 .543.232v-.749zm-73.736-8.794l15.187 4.96.465-1.424-15.187-4.96-.465 1.424zm15.419 4.997h15.794v-1.498h-15.794v1.498zm16.045-.043l13.972-4.96-.502-1.412-13.971 4.96.501 1.412zm13.936-4.949l15.187-4.546-.43-1.435-15.187 4.546.43 1.435zm14.429-4.747l13.364 14.053 1.086-1.033-13.365-14.053-1.085 1.032zm13.907 14.285h27.336v-1.498h-27.336v1.498z" fill="#FD9A00"/></g><defs><filter id="filter0_d_7569_275699" x="4.788" y="30.484" width="102.467" height="76.938" filterUnits="userSpaceOnUse" color-interpolation-filters="sRGB"><feFlood flood-opacity="0" result="BackgroundImageFix"/><feColorMatrix in="SourceAlpha" values="0 0 0 0 0 0 0 0 0 0 0 0 0 0 0 0 0 0 127 0" result="hardAlpha"/><feOffset dx=".842" dy=".842"/><feGaussianBlur stdDeviation=".842"/><feComposite in2="hardAlpha" operator="out"/><feColorMatrix values="0 0 0 0 0 0 0 0 0 0 0 0 0 0 0 0 0 0 0.1 0"/><feBlend in2="BackgroundImageFix" result="effect1_dropShadow_7569_275699"/><feBlend in="SourceGraphic" in2="effect1_dropShadow_7569_275699" result="shape"/></filter><filter id="filter1_d_7569_275699" x="108.015" y="30.484" width="102.467" height="76.938" filterUnits="userSpaceOnUse" color-interpolation-filters="sRGB"><feFlood flood-opacity="0" result="BackgroundImageFix"/><feColorMatrix in="SourceAlpha" values="0 0 0 0 0 0 0 0 0 0 0 0 0 0 0 0 0 0 127 0" result="hardAlpha"/><feOffset dx=".842" dy=".842"/><feGaussianBlur stdDeviation=".842"/><feComposite in2="hardAlpha" operator="out"/><feColorMatrix values="0 0 0 0 0 0 0 0 0 0 0 0 0 0 0 0 0 0 0.1 0"/><feBlend in2="BackgroundImageFix" result="effect1_dropShadow_7569_275699"/><feBlend in="SourceGraphic" in2="effect1_dropShadow_7569_275699" result="shape"/></filter><filter id="filter2_d_7569_275699" x="4.788" y="4.031" width="51.265" height="25.686" filterUnits="userSpaceOnUse" color-interpolation-filters="sRGB"><feFlood flood-opacity="0" result="BackgroundImageFix"/><feColorMatrix in="SourceAlpha" values="0 0 0 0 0 0 0 0 0 0 0 0 0 0 0 0 0 0 127 0" result="hardAlpha"/><feOffset dx=".842" dy=".842"/><feGaussianBlur stdDeviation=".842"/><feComposite in2="hardAlpha" operator="out"/><feColorMatrix values="0 0 0 0 0 0 0 0 0 0 0 0 0 0 0 0 0 0 0.1 0"/><feBlend in2="BackgroundImageFix" result="effect1_dropShadow_7569_275699"/><feBlend in="SourceGraphic" in2="effect1_dropShadow_7569_275699" result="shape"/></filter><filter id="filter3_d_7569_275699" x="56.815" y="4.031" width="50.439" height="25.686" filterUnits="userSpaceOnUse" color-interpolation-filters="sRGB"><feFlood flood-opacity="0" result="BackgroundImageFix"/><feColorMatrix in="SourceAlpha" values="0 0 0 0 0 0 0 0 0 0 0 0 0 0 0 0 0 0 127 0" result="hardAlpha"/><feOffset dx=".842" dy=".842"/><feGaussianBlur stdDeviation=".842"/><feComposite in2="hardAlpha" operator="out"/><feColorMatrix values="0 0 0 0 0 0 0 0 0 0 0 0 0 0 0 0 0 0 0.1 0"/><feBlend in2="BackgroundImageFix" result="effect1_dropShadow_7569_275699"/><feBlend in="SourceGraphic" in2="effect1_dropShadow_7569_275699" result="shape"/></filter><filter id="filter4_d_7569_275699" x="108.015" y="4.031" width="102.467" height="25.686" filterUnits="userSpaceOnUse" color-interpolation-filters="sRGB"><feFlood flood-opacity="0" result="BackgroundImageFix"/><feColorMatrix in="SourceAlpha" values="0 0 0 0 0 0 0 0 0 0 0 0 0 0 0 0 0 0 127 0" result="hardAlpha"/><feOffset dx=".842" dy=".842"/><feGaussianBlur stdDeviation=".842"/><feComposite in2="hardAlpha" operator="out"/><feColorMatrix values="0 0 0 0 0 0 0 0 0 0 0 0 0 0 0 0 0 0 0.1 0"/><feBlend in2="BackgroundImageFix" result="effect1_dropShadow_7569_275699"/><feBlend in="SourceGraphic" in2="effect1_dropShadow_7569_275699" result="shape"/></filter></defs></svg>