<svg width="144" height="98" fill="none" xmlns="http://www.w3.org/2000/svg"><g clip-path="url(#clip0_7569_275540)"><path d="M65.602 33.246l.373 8.595 13.676.175-.75-11.89-13.3 3.12z" fill="#F7D6C4"/><path d="M65.17 40.98s-18.298 5.624-13.101 10.367c5.2 4.744 24.545 5.382 33.895-.363 9.35-5.744-7.091-14.58-20.794-10.001v-.004z" fill="#F7D6C4"/><path d="M79.033 33.608c-6.185 6.331-13.36 1.902-13.36 1.902s2.76 4.018 7.178 3.383c4.055-.583 6.185-5.285 6.185-5.285h-.003z" fill="#F1B889"/><path d="M65.893 34.561S57.93 32.063 55.78 21.666c-1.113-4.173-1.901-8.907.485-13.2C59.852 2.006 63.952-.253 71.28.784c0 0 7.989-3.25 14.338 7.637 4.85 10.296-2.978 21.487-4.31 22.084-1.549.693-4.383 10.432-15.418 4.06l.003-.004z" fill="#003765"/><path d="M57.94 17.878c.157 5.952 1.112 10.258 2.65 13.359 2.118 4.264 5.731 5.777 10.948 5.683 7.498-.137 10.04-6.348 10.04-6.348.888-1.688 6.166-21.662-5.799-24.186-14.936-3.15-18.003 5.365-17.84 11.492z" fill="#F7D6C4"/><path d="M71.025 19.132l1.014 5.171c-.013.2-.598.347-.87.405-.51.11-1.142.15-1.705.065-.17-.078-.108-.347-.092-.48.15-1.202.887-4.38 1.09-5.132.098-.49.396-.95.563-.032v.003z" fill="#F1B889"/><path d="M71.924 24.449c.413-.337-1.004-1.043-1.397-.982-.507.078-1.329 1.157-1.06 1.306.566.317 1.76.087 2.457-.327v.003z" fill="#ED9535"/><path d="M73.384 13.647c.428-.33.933-.522 1.446-.645a5.105 5.105 0 0 1 1.588-.104c.533.052 1.07.195 1.554.454.481.26.916.645 1.13 1.147a8.052 8.052 0 0 0-1.408-.421c-.455-.091-.91-.15-1.375-.195a46.724 46.724 0 0 0-1.42-.11c-.488-.035-.975-.062-1.515-.13v.004zm-6.27-.013l-2.841.6c-.455.1-.907.2-1.365.317-.458.113-.913.243-1.424.398.246-.476.661-.839 1.11-1.111.451-.272.952-.46 1.46-.57.51-.11 1.034-.15 1.557-.1.517.051 1.048.174 1.5.466h.002z" fill="#003765"/><path d="M64.842 22.275c1.531 0 2.772-1.165 2.772-2.602 0-1.437-1.24-2.601-2.772-2.601-1.53 0-2.772 1.164-2.772 2.601s1.241 2.602 2.772 2.602z" fill="#fff"/><path d="M64.826 21.624c.67 0 1.214-.539 1.214-1.202a1.21 1.21 0 0 0-1.215-1.203 1.21 1.21 0 0 0-1.214 1.203 1.21 1.21 0 0 0 1.215 1.202z" fill="#003765"/><path d="M71.097 29.558c-.36 0-.684-.035-.943-.09a.466.466 0 1 1 .197-.914c.111.023 2.644.515 3.636-1.532a.474.474 0 0 1 .628-.22c.233.11.334.391.22.621-.819 1.688-2.491 2.132-3.741 2.132l.003.003z" fill="#F1A85D"/><path d="M73.727 6.785c1.237 2.423 4.12 6.412 7.266 6.2 3.25-.213 1.296 8.218 2.553 6.536 5.841-8.563-4.14-19.398-13.821-17.826-11.507.58-16.426 12.616-12.204 16.604.13-1.607 1.823-5.368 4.925-5.919 5.63-1.004 9.18-4.05 9.51-6.409.217-.54 1.516.311 1.771.814z" fill="#003765"/><path d="M76.35 21.951c1.53 0 2.771-1.165 2.771-2.602 0-1.437-1.24-2.601-2.772-2.601-1.53 0-2.772 1.164-2.772 2.601s1.241 2.602 2.772 2.602z" fill="#fff"/><path d="M76.287 21.3a1.21 1.21 0 0 0 1.215-1.203 1.21 1.21 0 0 0-1.215-1.202 1.21 1.21 0 0 0-1.214 1.203c0 .663.544 1.202 1.214 1.202z" fill="#003765"/><path d="M58.807 20.208c-1.181-2.32-4.696-1.15-4.595 1.74.082 2.3 1.434 5.51 5.695 5.783 0 0 1.296-2.81-1.1-7.523z" fill="#F7D6C4"/><path d="M56.463 21.212c.17.169.15.23.125.311-.023.078-.036.159-.05.237a2.716 2.716 0 0 0-.029.489c.007.327.075.651.18.959.108.31.255.606.429.89.082.147.19.28.278.422l.157.201c.06.061.111.126.01.337l-.072.068c-.216.078-.278.003-.337-.068-.062-.068-.128-.136-.187-.207-.11-.15-.232-.292-.33-.454a4.005 4.005 0 0 1-.475-1.024 3.756 3.756 0 0 1-.14-1.127c0-.192.029-.38.068-.567.023-.094.043-.185.075-.279.02-.09.063-.198.305-.188h-.007z" fill="#F1B889"/><path d="M82.335 19.398c1.329-2.777 4.67-1.02 4.67 1.364 0 2.22-2.035 6.447-6.015 6.208 0 0-.936-2.8 1.345-7.569v-.003z" fill="#F7D6C4"/><path d="M84.125 20.247c.242.006.275.11.291.2a3.561 3.561 0 0 1 .108.836 4.3 4.3 0 0 1-.144 1.112 4.39 4.39 0 0 1-.452 1.02c-.091.162-.21.305-.317.457-.056.075-.121.14-.18.21-.056.072-.115.146-.334.075l-.075-.064c-.108-.208-.056-.273 0-.334.049-.068.105-.133.15-.201.085-.143.19-.276.266-.425a5.39 5.39 0 0 0 .412-.894 3.68 3.68 0 0 0 .183-.959c.01-.162 0-.327-.013-.49a2.8 2.8 0 0 0-.036-.239c-.023-.08-.04-.146.14-.301v-.003z" fill="#F1B889"/><path fill-rule="evenodd" clip-rule="evenodd" d="M49.69 89.78l.002.227-.002-.227zm45.124 0c3.44-.68 6.385-1.24 8.61-1.603 1.057-6.74 1.575-26.37.478-31.367-.743-3.383-2.88-6.5-8.25-9.312-.61-.319-1.344-.71-2.157-1.144-4.444-2.37-11.189-5.968-12.116-5.507-6.388 4.088-11.703 4.212-17.182.58-1.001-.493-13.617 5.077-17.201 7.173-4.467 2.611-7.302 6.182-8.31 16.666-.47 4.919-1.606 24.407-1.528 31.93h12.24a47.62 47.62 0 0 0 0 .004h49.144v-7.42h-3.728z" fill="#1376A0"/><path d="M74.295 41.47l-11.51.854a1.55 1.55 0 0 0-1.44 1.657l1.601 21.14c.065.851.814 1.49 1.674 1.426l11.51-.855a1.55 1.55 0 0 0 1.44-1.657l-1.602-21.14a1.556 1.556 0 0 0-1.673-1.426z" fill="#A3C5CE"/><path d="M63.223 45.017a.752.752 0 0 0 .756-.749.752.752 0 0 0-.756-.748.752.752 0 0 0-.756.748c0 .414.338.749.756.749z" fill="#C5DDE3"/><path d="M83.31 69.398c-1.77-6.35-3.678-9.422-4.313-10.838-.635-1.416-1.787-3.104-3.924-4.38-2.33-1.39-4.794-2.097-4.866-.876-.027.444.399.95 2.323 1.915 1.31.658 3.378 2.314 2.874 3.937 0 0-1.372-1.805-2.586-2.712-.946-.706-2.314-1.144-3.469-1.244-1.486-.127-1.554 1.06-.2 1.691.832.389 2.534.765 3.417 2.262.432.732 1.123 1.879.989 2.268a5.907 5.907 0 0 0-1.99-2.3c-.52-.357-1.552-.671-2.314-.671-.763 0-1.162.933-.314 1.409 1.476.83 2.202 1.345 2.726 2.391.51 1.017.723 1.821.651 2.116-.497-1.134-1.796-2.09-3.096-2.31-1.073-.182-1.158.823-.435 1.163 1.312.619 2.01 1.963 2.464 2.929.638 1.36.622 1.555 1.516 2.699 1.878 2.407 4.208 3.408 7.069 3.723 2.86.314 3.286 1.658 3.286 1.658l.196-4.83h-.003z" fill="#F7D6C4"/><path d="M83.975 65.898l-8.103 7.553s4.69 9.127 10.944 13.961c2.36 1.824 5.528 4.137 7.455 4.854 3.21 1.198 6.205 1.189 8.107-1.296 2.723-3.555.442-7.708-2.874-11.023-9.183-9.182-15.525-14.049-15.525-14.049h-.004z" fill="#1376A0"/><path d="M98.826 79.435c-.422-.03-.628-.253-.838-.476l-.654-.645c-.442-.424-.884-.849-1.339-1.26-.9-.833-1.823-1.646-2.749-2.456l-2.782-2.42-1.394-1.21-.7-.598c-.24-.195-.475-.392-.537-.794l.082-.094c.412-.01.648.188.883.389l.714.59 1.42 1.185c.943.797 1.866 1.617 2.785 2.437.913.829 1.82 1.668 2.707 2.524.448.424.884.861 1.322 1.299l.648.664c.216.22.435.444.435.859l-.003.006zm-21.799-4.293c.524.272.799.697 1.077 1.121l.848 1.26c.602.814 1.191 1.64 1.806 2.443 1.257 1.588 2.543 3.156 3.964 4.598 1.397 1.461 2.876 2.848 4.47 4.089l1.211.907c.419.275.825.58 1.26.836.216.13.425.269.645.392l.657.366c.452.217.887.444 1.264.859l-.04.116c-.592.078-1.07-.165-1.531-.398l-.684-.373c-.226-.126-.445-.266-.668-.398-.448-.26-.867-.564-1.302-.846l-1.25-.914c-1.64-1.254-3.126-2.682-4.54-4.166-1.42-1.481-2.697-3.085-3.947-4.705-.608-.82-1.19-1.659-1.79-2.488l-.838-1.283c-.284-.425-.57-.849-.608-1.423l-.004.007z" fill="#11507F"/></g><defs><clipPath id="clip0_7569_275540"><path fill="#fff" d="M0 0h144v97.2H0z"/></clipPath></defs></svg>