<svg width="185" height="110" fill="none" xmlns="http://www.w3.org/2000/svg"><g clip-path="url(#clip0_7569_275623)"><path fillRule="evenodd" clip-rule="evenodd" d="M170.087 65.51c32.596-22.76 7.895-73.114-36.796-64.54-38.916 7.466-61.157 9.8-92.6 11.748-53.645 3.323-52.574 73.305-6.629 85.323 45.945 12.017 108.089-13.033 136.025-32.533z" fill="#FAF2D0"/><path d="M103.59 61.17c7.594-2.52 16.565-6.706 16.028-17.646-1.405-8.405-7.873-7.843-13.182-28.516-2.498-9.725-9.078-11.848-14.743-11.785 0 0-10.034-2.538-15.656 6.066-5.621 8.6-.205 17.72-1.29 23.118-1.145 5.7-5.63 2.936-9.917 11.747-1.876 7.21 1.915 16.095 13.133 13.617 9.16-2.022 10.933 7.99 25.627 3.4z" fill="#B95E4B"/><path d="M82.681 46.24s-19.1 5.907-13.672 10.887c5.426 4.98 25.616 5.651 35.376-.382 9.758-6.033-7.401-15.311-21.704-10.506z" fill="#F7D6C4"/><path d="M95.929 59.586c-3.315.64-6.695.39-9.473-.104.948 3.23 1.671 6.159 1.605 7.793l-1.137 32.42h8.662l-1.145-32.619c-.065-1.604.6-4.399 1.485-7.49h.003z" fill="#F9F8F8"/><path d="M86.456 59.482c-1.293-4.404-3.005-9.376-3.726-12.432-.156-.66-.148-.988-.792-.764-3.898 1.358-14.327 4.202-16.822 5.975-3.474 2.595-10.462 9.729-16.303 18.703l9.725 11.674c-.715-1.424 5.359-8.006 7.81-10.587 1.877-1.976 1.715-1.245 1.65 1.263-.346 13.401 2.903 19.775 2.144 23.82a59.066 59.066 0 0 0-.408 2.559h7.824l2.575-41.96s2.63 1.089 6.32 1.746l.003.003z" fill="#D5B488"/><path d="M86.455 59.482c-3.692-.658-6.32-1.747-6.32-1.747l-2.575 41.96h9.364l1.137-32.42c.065-1.634-.658-4.56-1.606-7.793zm27.118 16.258s3.983 7.007 5.137 14.449c-1.332 2.737 11.135 4.791 11.971 2.827 1.046-2.47.896-4.254.531-6.536-.887-8.039-8.404-25.476-8.955-26.85-1.32-3.297-4.065-5.23-6.207-6.449-3.14-1.662-12.191-5.984-15.601-6.945-.441-.125-.554-.136-.652.202-.036.123-.173.581-.277.972-.718 3.048-2.364 7.897-3.591 12.178 1.747-.338 3.476-.922 5.092-1.85l5.685 41.96h7.914c-1.263-5.282-2.17-22.266-1.044-23.955l-.003-.003z" fill="#D5B488"/><path d="M95.929 59.586c-.885 3.091-1.55 5.886-1.485 7.49l1.145 32.62h11.119l-5.684-41.96c-1.614.927-3.345 1.511-5.093 1.85h-.002z" fill="#D5B488"/><path d="M75.268 19.058c.4 14.844 5.597 19.95 12.522 21.448 9.286 2.011 13.546-11.846 13.546-11.846s5.578-18.765-7.057-21.672c-15.839-3.64-19.184 5.633-19.011 12.067v.003z" fill="#F7D6C4"/><path d="M91.142 17.628c.452-.338.973-.54 1.51-.674a5.214 5.214 0 0 1 1.663-.131 4.254 4.254 0 0 1 1.635.483c.501.29.929.712 1.159 1.22-.52-.23-.973-.407-1.447-.527-.476-.11-.947-.177-1.435-.226-.488-.044-.984-.06-1.496-.077-.512-.016-1.032-.027-1.591-.068h.002zm-7.04 0c-.553-.017-1.057.014-1.558.04-.502.03-.99.077-1.471.145-.483.071-.962.15-1.439.273-.482.12-.958.273-1.495.437.293-.475.726-.851 1.213-1.13a4.52 4.52 0 0 1 1.592-.524 4.858 4.858 0 0 1 1.663.055c.537.12 1.084.314 1.498.701l-.003.003z" fill="#CC7458"/><path d="M76.72 22.098c-1.269-2.51-4.655-.994-4.655 1.498 0 2.491 1.258 6.347 5.838 6.642 0 0 1.394-3.04-1.183-8.14z" fill="#F7D6C4"/><path d="M74.312 23.263c.178.188.148.259.12.352-.024.09-.04.183-.057.275a3.252 3.252 0 0 0-.036.565c.008.38.085.753.206 1.114.12.36.293.704.493 1.034.096.166.216.32.32.485.058.08.12.153.181.23.066.073.129.144.028.374l-.077.07c-.233.074-.304-.008-.37-.092-.071-.08-.142-.156-.21-.238-.127-.171-.264-.335-.376-.518a4.356 4.356 0 0 1-.307-.568c-.096-.193-.164-.398-.236-.605a4.36 4.36 0 0 1-.164-1.288c0-.219.033-.434.074-.65.025-.106.05-.213.082-.32.025-.103.066-.223.326-.22h.003z" fill="#F1B889"/><path d="M82.174 25.811c1.599 0 2.895-1.224 2.895-2.734s-1.296-2.734-2.895-2.734c-1.6 0-2.896 1.224-2.896 2.734s1.297 2.734 2.896 2.734z" fill="#fff"/><path d="M82.157 24.406c.7 0 1.266-.564 1.266-1.26 0-.697-.567-1.261-1.266-1.261-.699 0-1.265.564-1.265 1.26 0 .697.566 1.261 1.265 1.261z" fill="#003765"/><path d="M89.277 32.038c-.375 0-.715-.038-.984-.095a.49.49 0 1 1 .206-.958c.115.025 2.759.543 3.797-1.607a.494.494 0 0 1 .657-.23.49.49 0 0 1 .23.656c-.854 1.77-2.6 2.237-3.903 2.237l-.003-.002z" fill="#F1A85D"/><path d="M103.801 21.68c4.408-4.189-.099-18.758-12.108-19.366C71.45 1.291 75.278 20.861 75.278 20.861s2.753-.24 6.178-3.68c3.079-3.095 2.375-9.65 2.375-9.65 2.065.552 3.1-1.648 6.213 4.552 1.279 2.549 4.569 4.914 7.86 4.914 3.289 0 5.757 2.994 5.894 4.683h.003z" fill="#B95E4B"/><path d="M83.585 37.229l.392 9.026 14.272.183-.783-12.487-13.881 3.278z" fill="#F7D6C4"/><path d="M94.266 25.811c1.599 0 2.895-1.224 2.895-2.734s-1.296-2.734-2.895-2.734c-1.6 0-2.896 1.224-2.896 2.734s1.296 2.734 2.896 2.734z" fill="#fff"/><path d="M94.205 24.406c.699 0 1.266-.564 1.266-1.26 0-.697-.567-1.261-1.266-1.261-.699 0-1.266.564-1.266 1.26 0 .697.567 1.261 1.266 1.261z" fill="#003765"/><path d="M101.035 22.575c1.351-2.669 4.95-1.514 4.742 1.446-.247 3.485-2.359 6.29-5.687 6.331 0 0-1.797-2.352.945-7.774v-.003z" fill="#F7D6C4"/><path d="M103.262 23.263c.26.013.29.133.312.237.03.104.047.21.069.317.033.213.055.425.055.641a4.88 4.88 0 0 1-.165 1.272c-.131.406-.29.807-.515 1.168-.104.185-.238.352-.359.523-.063.085-.137.161-.202.24-.063.082-.132.167-.365.099l-.076-.068c-.107-.224-.047-.298.016-.372.058-.079.121-.152.173-.232.098-.166.219-.319.306-.488.195-.33.351-.677.472-1.037a4.3 4.3 0 0 0 .208-1.113c.011-.188 0-.38-.017-.565-.013-.093-.024-.188-.044-.278-.024-.093-.049-.17.14-.344h-.008zm-6.608 13.3c-6.092 6.977-13.34 2.286-13.34 2.286s2.742 4.855 7.31 3.946c4.192-.835 6.03-6.232 6.03-6.232zm-8.221-14.801l1.06 5.43c-.01.213-.624.366-.906.426a5.159 5.159 0 0 1-1.781.068c-.175-.082-.112-.366-.096-.502.156-1.263.926-4.6 1.137-5.39.104-.515.414-.995.586-.035v.003z" fill="#F1B889"/><path d="M89.373 27.345c.43-.352-1.05-1.094-1.458-1.029-.531.085-1.386 1.215-1.106 1.373.589.333 1.835.093 2.567-.341l-.003-.003z" fill="#ED9535"/><path d="M121.901 104.321c1.772-1.059 8.867-9.717 8.78-11.747-.178-4.06-8.966-6.135-11.476-3.758-.717.68-4.566 6.042-6.24 8.44-1.411 2.022 6.188 7.859 8.936 7.062v.003z" fill="#D5B488"/><path d="M114.701 96.566s.781-1.037 2.693-1.212c1.912-.174 4.169.778 5.125 3.114 1.11 2.709-.608 4.066-1.388 4.759-.781.693-6.427-6.661-6.427-6.661h-.003z" fill="#F1B889"/><path d="M118.732 106.872s2.221-2.084 2.893-3.26c1.936-3.401-1.135-8.555-8.312-7.043-3.26.684-4.698 3.495-5.78 5.266 0 0-4.676 5.409-2.835 5.938 1.282.368 3.613-2.418 5.139-4.352.342-.05-4.391 5.252-3.279 6.164 1.265 1.039 3.799-2.066 5.906-4.23 0 0-4.419 4.541-3.205 5.84.726.775 2.876-2.26 6.448-5.095 2.362-1.874-5.259 4.538-2.32 4.716 1.367.081 5.347-3.944 5.347-3.944h-.002z" fill="#F7D6C4"/><path d="M111.313 97.34s-4.621 1.783-6.446 2.844c-1.824 1.062-1.849 2.579-.8 2.366 1.052-.213 2.742-1.056 3.929-.745 2.12.557 6.171-4.81 3.317-4.464z" fill="#F7D6C4"/><path d="M111.655 101.988c.069.237.008.284-.06.327l-.186.15a12.278 12.278 0 0 0-1.049.975c-.225.223-.436.458-.65.69-.107.117-.208.237-.309.355-.052.06-.102.12-.151.183-.044.065-.088.128-.32.065l-.085-.057c-.137-.194-.088-.262-.036-.33.047-.071.093-.14.145-.205a7.725 7.725 0 0 1 1.003-1.116c.246-.224.501-.437.761-.639.132-.101.263-.202.398-.297l.202-.145c.063-.052.135-.101.337.044zm2.624 1.935c.069.237.006.283-.063.327l-.189.145-.375.297c-.246.202-.49.404-.729.617l-.706.627-.343.32c-.055.054-.112.106-.164.161-.049.06-.096.114-.323.032l-.08-.065c-.12-.205-.063-.27-.005-.33.052-.066.109-.126.164-.188.11-.126.227-.241.345-.358a9.43 9.43 0 0 1 .745-.641c.258-.199.524-.39.787-.579l.4-.278.202-.136c.063-.052.132-.099.332.049h.002zm3.003.906c.069.237.006.283-.063.327l-.189.145-.375.297c-.246.202-.49.404-.729.617l-.706.627-.343.32c-.055.054-.112.106-.164.161-.049.06-.096.114-.323.032l-.08-.065c-.12-.205-.063-.27-.005-.33.052-.066.109-.126.164-.189.11-.125.227-.24.345-.357a9.43 9.43 0 0 1 .745-.641c.258-.199.524-.39.787-.579l.399-.278.203-.137c.063-.051.132-.098.332.05h.002zm-7.067-5.635c.082.232.024.278-.036.319l-.17.147-.334.3a17.57 17.57 0 0 0-.641.625c-.211.21-.411.426-.616.639l-.296.325c-.05.054-.099.109-.145.166-.042.06-.085.117-.313.044l-.085-.06c-.137-.191-.087-.257-.038-.317.044-.065.093-.125.14-.188.093-.128.194-.243.296-.363.205-.232.424-.453.654-.66.23-.205.469-.402.707-.595l.364-.284.187-.14c.057-.051.12-.097.323.042h.003z" fill="#F1B889"/><path d="M119.003 89.3c-.014-.293.164-.468.353-.555.093-.054.183-.114.277-.16l.287-.126c.387-.164.786-.27 1.189-.355a10.225 10.225 0 0 1 2.446-.17c.817.05 1.633.173 2.419.424.195.07.389.139.584.212l.564.265.537.325c.17.12.345.26.356.548l-.068.077c-.304.049-.444-.057-.592-.175l-.493-.28-.523-.23c-.181-.066-.362-.123-.545-.186a10.326 10.326 0 0 0-2.277-.406 9.52 9.52 0 0 0-2.315.095 5.774 5.774 0 0 0-1.104.295l-.263.106c-.085.039-.161.09-.241.134-.082.044-.159.096-.241.131a.729.729 0 0 1-.356.03h.006z" fill="#AA855C"/><path d="M39.582 66.683c-.28.428-.01 1.288.162 1.771 1.263 3.537 3.684 18.198 6.087 20.204 6.456 5.39 13.683-.363 11.061-5.22l-9.316-20.051c-.29-.44-.822-.502-1.343-.412-1.887.33-5.602 2.1-6.651 3.708z" fill="#D5B488"/><path d="M47.219 64.08c-.4.971-3.495 4.281-6.635 3.34-2.274-.682 2.745-3.217 3.553-3.621 1.545-.77 3.424-.805 3.082.278v.003z" fill="#AA855C"/><path d="M38.376 63.349l2.367 4.04c1.317.915 4.739-.657 5.594-2.133-.378-.65-1.825-3.084-1.63-3.613.88-2.377-2.348-9.068-4.12-8.495-1.406.453-4.693 3.013-2.211 10.198v.003z" fill="#F1B889"/><path d="M41.025 52.946l-4.01-.283c.06-.314 1.273-2.38 2.424-3.188.62-.343 1.926-.338 2.61-.065.2.079.373.598.121 1.154-.465 1.018-1.145 2.385-1.145 2.385v-.003z" fill="#F7D6C4"/><path d="M47.29 60.96s-2.49.904-4.051-.403c-2.953-2.472-2.701-7.062-2.701-7.062-.176-3.875 5.065-4.497 5.065-4.497l.523 2.27s-2.698.197-3.189 1.711c-.58 1.793-.035 4.282.707 5.291.846 1.15 2.77.606 2.77.606l.876 2.085z" fill="#5499B7"/><path d="M55.838 44.424s3.049 14.69 2.032 15.394c-1.89 1.31-8.634 2.785-10.607 2.292-1.449-.36-4.265-15.194-4.265-15.194.647-1.35 10.971-3.223 12.84-2.492z" fill="#C5DDE3"/><path d="M42.888 60.677c-.228.016.057.11.197-.07.583-.754-.359-1.985-1.118-2.192-1.323.057-1.167-.434.915-.95 1.652-.207 1.762-3.124-.592-2.726 0 0-2.632.284-1.227-.305.422-.134 1.55-.123 1.893-.284.811-.38 1.09-1.42.57-1.938-.367-.365-2.205-.256-2.827-.256-.696 0-3.518.243-4.301.655-.778.41-2.342 1.683-1.857 2.98-.326 1.01.252 5.9 1.34 7.242.479.996 1.506 1.22 2.372 1.49.767.278 1.914-.099 3.824-.944 1.093-.483 1.868-1.125 1.78-1.774-.087-.65-.416-.969-.97-.928z" fill="#F7D6C4"/><path d="M37.17 55.331c-.01-.245.07-.275.143-.294l.222-.082c.148-.052.299-.101.447-.15.298-.096.602-.183.907-.257a8.188 8.188 0 0 1 1.4-.224c.079-.008.155-.01.235-.013.077-.011.159-.017.252.199l.008.104c-.06.229-.131.237-.208.24-.074.01-.15.019-.225.033l-.446.07c-.299.05-.595.099-.893.156a14.306 14.306 0 0 0-1.331.297l-.217.063c-.071.028-.14.052-.293-.142zm.568 3.531c-.065-.259.08-.303.157-.327.087-.033.172-.057.257-.085.17-.049.337-.095.504-.136a41.29 41.29 0 0 1 1.005-.24c.337-.066.672-.14 1.008-.197.17-.027.337-.057.507-.079l.255-.035c.082-.02.167-.033.29.172l.02.1c-.044.235-.13.252-.214.263l-.25.054a16.22 16.22 0 0 1-.5.104c-.335.065-.672.12-1.006.18-.337.054-.671.109-1.003.172-.167.03-.331.065-.493.1-.08.02-.161.039-.233.06-.035.009-.074.034-.11.014a.55.55 0 0 1-.076-.043.253.253 0 0 0-.118-.082v.005zm.589 3.084c.014-.254.104-.281.195-.308l.265-.099.532-.193 1.063-.39c.356-.123.712-.252 1.07-.366.181-.058.36-.115.54-.167l.272-.082c.087-.032.177-.062.34.12l.032.099c-.016.243-.107.273-.197.3l-.266.098c-.175.068-.353.128-.531.191-.357.126-.718.235-1.077.355l-1.085.327-.542.164-.271.082c-.088.033-.178.065-.343-.128l.003-.003z" fill="#F1B889"/><path d="M89.644 107.192c.107.42-.164.766-.6.766H38.082a.29.29 0 0 1-.28-.215l-8.467-33.687c-.107-.42.164-.767.6-.767H80.33c.436 0 .88.344.987.767l8.33 33.138-.003-.002z" fill="#635A75"/><path d="M103.337 107.967h-50.18a.9.9 0 0 0-.902.897v.003a.9.9 0 0 0 .901.898h50.181a.9.9 0 0 0 .901-.898v-.003a.9.9 0 0 0-.901-.897z" fill="#290D4B"/><path d="M89.568 107.967h-51.44a.27.27 0 0 0-.272.27v1.258c0 .149.122.27.272.27h51.44a.27.27 0 0 0 .271-.27v-1.258a.27.27 0 0 0-.27-.27z" fill="#635A75"/><path d="M48.514 42.904c-.18-.3-.235-.556-.263-.81-.021-.251.036-.491.055-.737.052-.488.082-.98.09-1.468.014-.977-.06-1.956-.273-2.892-.209-.936-.56-1.834-1.085-2.6a5.518 5.518 0 0 0-.907-1.046c-.164-.164-.353-.29-.54-.44l-.632-.485c-1.622-1.37-2.907-3.157-3.586-5.19a9.535 9.535 0 0 1-.502-3.166 9.045 9.045 0 0 1 .17-1.604c.069-.26.102-.532.233-.772.143-.238.323-.461.622-.62l.194.074c.137.32.16.576.143.819-.008.242-.063.472-.115.7-.077.465-.12.937-.112 1.409.01.944.18 1.886.49 2.783a10.878 10.878 0 0 0 3.21 4.686l.562.453c.206.171.436.338.627.532.403.376.76.805 1.05 1.266.597.92.964 1.948 1.175 2.985.214 1.04.268 2.093.233 3.13-.02.521-.063 1.037-.13 1.553-.04.256-.051.518-.158.764-.11.243-.258.483-.556.674l.005.002zm-.881-14.65a1.845 1.845 0 0 1-.263-.81c-.022-.252.035-.492.054-.738.052-.488.083-.98.09-1.468.014-.976-.06-1.956-.273-2.892-.208-.936-.559-1.834-1.085-2.6a5.521 5.521 0 0 0-.907-1.046c-.164-.163-.353-.289-.54-.44l-.632-.485c-1.622-1.37-2.907-3.157-3.586-5.19a9.538 9.538 0 0 1-.501-3.165 9.036 9.036 0 0 1 .17-1.605c.068-.259.1-.532.232-.772.143-.237.324-.461.622-.62l.195.074c.137.32.159.576.142.819-.008.243-.063.472-.115.701-.077.464-.12.936-.112 1.408.01.944.18 1.886.49 2.784a10.877 10.877 0 0 0 3.21 4.685l.562.453c.206.172.436.338.628.532.402.377.758.805 1.049 1.266.597.92.964 1.948 1.175 2.985.214 1.04.268 2.093.233 3.13-.02.521-.063 1.037-.129 1.553-.041.256-.052.518-.159.764-.11.243-.257.483-.556.674l.006.003zm99.621 8.09c-2.679 1.007-3.279 1.823-4.019 5.469-.739-3.646-1.339-4.462-4.018-5.469 2.679-1.006 3.279-1.822 4.018-5.468.74 3.646 1.34 4.462 4.019 5.468zm-9.01-14.954c-3.991 1.502-4.884 2.716-5.988 8.149-1.101-5.433-1.997-6.65-5.988-8.148 3.991-1.501 4.884-2.715 5.988-8.148 1.101 5.433 1.997 6.65 5.988 8.148z" fill="#D8B78B"/><path d="M39.68 50.88c.387.598 2.263.372 2.584-.635l-2.583.636z" fill="#F7D6C4"/><path d="M158.598 89.115s.279-11.284-5.578-14.174c-5.857-2.89 1.022-10.983-2.38-12.863-9.369-5.177-2.526-7.136-7.534-14.348.784-3.891 18.639 8.503 17.809 19.906-.685 9.404 2.534 8.22 1.063 16.802-1.471 8.581-2.665 8.516-2.665 8.516l-.715-3.84z" fill="#C5DDE3"/><path d="M164.506 94.755s-.592-11.273 5.18-14.32c5.775-3.049-1.326-10.951 2.022-12.924 9.221-5.433 2.326-7.201 7.131-14.55-.893-3.87-18.395 9.01-17.25 20.387.945 9.381-2.304 8.287-.595 16.825 1.71 8.539 2.901 8.44 2.901 8.44l.608-3.858h.003z" fill="#C5DDE3"/><path d="M160.189 74.816c-.384-.584-.531-1.225-.685-1.864l-.482-1.907a97.666 97.666 0 0 0-1.057-3.788c-.762-2.505-1.65-4.975-2.759-7.338-1.101-2.363-2.438-4.625-4.093-6.63a20.537 20.537 0 0 0-2.739-2.76c-.255-.199-.504-.406-.767-.6-.266-.185-.529-.376-.797-.556-.274-.172-.554-.339-.817-.53-.268-.183-.534-.376-.769-.636l.046-.092c.343.052.66.172.973.3.301.145.58.33.868.505.28.183.551.379.827.567.272.197.529.41.795.612a21.11 21.11 0 0 1 2.835 2.816c1.712 2.046 3.052 4.363 4.167 6.762 1.106 2.406 1.98 4.906 2.725 7.433a95.178 95.178 0 0 1 1.033 3.815l.466 1.918c.159.638.312 1.277.233 1.97l-.003.003z" fill="#A3C5CE"/><path d="M152.141 63.437c.288-.071.419.044.553.155l.411.328.822.655 1.644 1.312c.542.445 1.09.882 1.627 1.332l.803.68.4.338c.136.109.271.22.265.505l-.065.079c-.28.06-.414-.05-.548-.164l-.411-.328-.822-.657c-.545-.44-1.079-.892-1.619-1.34l-1.603-1.362-.8-.682-.4-.34c-.136-.11-.273-.22-.257-.514v.003zm4.322-5.605c.244.098.247.207.249.32l.025.33.049.66.102 1.32c.024.442.057.882.074 1.324l.021.663.009.33c.008.11.013.221-.206.341l-.104.006c-.23-.098-.235-.21-.238-.32l-.028-.33-.046-.66c-.028-.442-.041-.882-.06-1.324l-.033-1.323-.017-.663-.008-.33c-.008-.11-.016-.221.214-.341l-.003-.003zm16.286.27c-.362.59-.803 1.045-1.255 1.515-.432.483-.86.971-1.249 1.495-.805 1.02-1.501 2.123-2.169 3.242-1.31 2.254-2.334 4.66-3.181 7.122l-.611 1.855-.504 1.889-.252.944c-.074.316-.134.638-.202.958l-.4 1.915c-.074.317-.124.641-.17.963l-.148.966-.296 1.935-.192 1.949c-.057.649-.118 1.298-.403 1.934l-.104-.008c-.161-.668-.104-1.326-.038-1.978l.181-1.965.285-1.954.142-.977c.044-.327.093-.652.165-.974l.397-1.935c.068-.322.129-.646.205-.966l.258-.955.515-1.91.624-1.877c.88-2.486 1.937-4.917 3.285-7.193.687-1.13 1.405-2.243 2.232-3.277.4-.527.841-1.024 1.288-1.515.452-.48.926-.971 1.594-1.2l.003.002z" fill="#A3C5CE"/><path d="M171.521 65.54c.009.3-.137.413-.282.527l-.424.355-.85.707-1.695 1.413c-.573.464-1.137.936-1.715 1.395l-.868.685-.433.34c-.14.12-.285.236-.57.178l-.066-.079c0-.29.145-.407.291-.518l.424-.353.849-.706c.567-.47 1.148-.922 1.721-1.386l1.736-1.365.869-.682.435-.341c.143-.117.283-.237.576-.17h.002zm-1.733 7.805c.006.314-.148.448-.304.584l-.455.418-.906.835-1.814 1.667c-.611.548-1.216 1.105-1.833 1.648l-.928.81-.463.407c-.151.14-.304.276-.608.248l-.069-.076c.003-.303.156-.442.312-.576l.455-.417.91-.833c.605-.554 1.227-1.094 1.841-1.64l1.857-1.62.929-.811.465-.404c.151-.139.302-.278.614-.24h-.003z" fill="#A3C5CE"/><path d="M172.083 109.984h-20.304l-1.775-24.542h23.855l-1.776 24.542z" fill="#5499B7"/></g><defs><clipPath id="clip0_7569_275623"><path fill="#fff" d="M0 0h185v110H0z"/></clipPath></defs></svg>