<svg width="144" height="98" fill="none" xmlns="http://www.w3.org/2000/svg"><g clip-path="url(#clip0_7569_275575)"><path d="M54.448 35.783c-.786-6.275 4.025-8.11 2.337-11.82-.848-1.864 1.03.5-.518-3.654-1.656-4.452-1.135-9.163.144-11.948 1.496-3.258 6.251-7.36 9.262-6.915 14.783-5.152 23.066 4.82 22.34 12.807-.982 8.787 6.575 10.912.883 22.402 0 0-5.651-2.553-10.993-.29-5.69 2.415-9.52.966-15.408-.482-2.156-.532-6.895-.693-8.047-.097v-.003z" fill="#11507F"/><path d="M76.644 39.601c2.045 1.172 9.981 2.972 10.014 3.742v10.634H58.932V43.343c.03-.77 7.969-2.57 10.014-3.742h7.698z" fill="#F7D6C4"/><path d="M79.737 43.436H65.88s.658-8.01.337-11.678h13.18c-.322 3.67.336 11.678.336 11.678h.004z" fill="#F7D6C4"/><path d="M78.5 34.45c-6.69 5.084-12.463.228-12.463.228s2.343 4.518 6.85 4.267c4.133-.232 5.613-4.495 5.613-4.495z" fill="#F1B889"/><path d="M59.265 16.504c-.298 14.127 4.098 18.374 10.692 20.113 8.846 2.33 13.582-9.724 13.582-9.724S89.77 9.308 77.743 5.976C62.666 1.8 59.393 10.38 59.262 16.504h.003z" fill="#F7D6C4"/><path d="M71.863 19.376l1.02 5.167c-.012.203-.602.348-.873.406-.51.11-1.149.148-1.715.064-.17-.077-.108-.348-.092-.48.15-1.2.89-4.375 1.093-5.128.099-.49.4-.947.567-.033v.004z" fill="#F1B889"/><path d="M72.766 24.688c.415-.335-1.012-1.04-1.404-.979-.511.08-1.336 1.156-1.067 1.308.569.315 1.77.09 2.47-.326v-.003z" fill="#ED9535"/><path d="M60.886 20.445c-1.064-2.348-4.84-1.204-4.952 1.072-.111 2.273 1.463 5.946 5.685 6.413 0 0 1.423-2.717-.736-7.485h.003z" fill="#F7D6C4"/><path d="M58.327 21.243c.164.177.14.235.108.313a2.62 2.62 0 0 0-.111.712 3.17 3.17 0 0 0 .134.955c.095.313.226.612.383.902.075.148.173.283.255.428l.147.206c.056.064.105.129-.006.335l-.076.064c-.222.068-.28-.006-.333-.08-.06-.071-.118-.139-.177-.213-.105-.151-.216-.3-.308-.463a4.157 4.157 0 0 1-.425-1.034 3.802 3.802 0 0 1-.088-1.12 3.03 3.03 0 0 1 .094-.557c.027-.09.053-.184.089-.27.023-.09.069-.19.314-.171v-.007z" fill="#F1B889"/><path d="M68.302 20.833c.07-1.435-1.121-2.657-2.66-2.73-1.538-.072-2.841 1.033-2.91 2.468-.07 1.435 1.12 2.657 2.659 2.73 1.538.072 2.841-1.033 2.91-2.468z" fill="#fff"/><path d="M65.516 22.408a1.21 1.21 0 0 0 1.22-1.2 1.21 1.21 0 0 0-1.22-1.201 1.21 1.21 0 0 0-1.221 1.2 1.21 1.21 0 0 0 1.22 1.201z" fill="#003765"/><path d="M71.669 30.01a4.74 4.74 0 0 1-.95-.09.466.466 0 0 1-.362-.55.472.472 0 0 1 .556-.358c.108.022 2.66.518 3.662-1.533a.47.47 0 0 1 .629-.215c.235.11.333.386.219.618-.822 1.684-2.504 2.128-3.757 2.128h.003z" fill="#F1A85D"/><path d="M87.28 16.9c.543-4.997-2.65-13.24-12.214-14.166-19.433-1.887-15.78 15.528-15.78 15.528s.847-4.205 4.597-7.177c3.597-2.85 2.799-5.602 2.799-5.602 2.497 2.457 2.86 5.712 5.877 7.466 3.24 1.884 6.801 1.266 10.012 3.188 3.387 2.028-.33 5.953 2.873 10.154 1.28 1.784 1.84-9.388 1.84-9.388l-.004-.003z" fill="#11507F"/><path d="M80.27 20.833c.07-1.435-1.12-2.657-2.659-2.729-1.538-.072-2.841 1.033-2.91 2.468-.07 1.435 1.12 2.657 2.658 2.73 1.539.071 2.842-1.034 2.912-2.469z" fill="#fff"/><path d="M77.439 22.405a1.21 1.21 0 0 0 1.22-1.2 1.21 1.21 0 0 0-1.22-1.202 1.21 1.21 0 0 0-1.221 1.201 1.21 1.21 0 0 0 1.22 1.201zm-2.861-6.519c.41-.325.903-.522 1.41-.647a4.733 4.733 0 0 1 1.565-.126 4.714 4.714 0 0 1 1.528.367 3.91 3.91 0 0 1 1.293.853c-.517-.1-.982-.235-1.46-.315a12.49 12.49 0 0 0-1.413-.187 13.178 13.178 0 0 0-1.43-.035c-.485.012-.972.045-1.49.09h-.003zm-6.168 0a24.592 24.592 0 0 0-1.49-.09 13.85 13.85 0 0 0-1.43.035c-.47.039-.942.093-1.413.187-.478.08-.943.215-1.46.315a3.92 3.92 0 0 1 1.293-.853 4.595 4.595 0 0 1 1.528-.367c.527-.042 1.057 0 1.565.125.507.123 1.001.322 1.41.648h-.003z" fill="#003765"/><path d="M86.94 63.227c16.34-.229 10.41-15.59 7.51-17.029-2.258-1.12-10.07-4.195-10.56-4.356-.498-.145-.933-.3-1.07-.058-.138.242-5.862 7.457-7.6 9.253-1.66 1.716-1.937 1.797-2.376 1.797-.438 0-.717-.077-2.376-1.797-1.738-1.796-7.465-9.024-7.6-9.253-.133-.228-.572-.087-1.07.058-.49.161-10.204 4.105-12.462 5.229-2.903 1.439-3.996 9.771-4.762 16.156H86.94z" fill="#11507F"/><path d="M39.135 80.767a48.12 48.12 0 0 0 .01 6.806h12.55c.047-2.311.083-4.703.102-7.144.06-8-.818-16.085-1.047-22.421h.488L49.343 47.07c-2.66 1.49-8.244 5.86-10.208 33.696z" fill="#11507F"/><path d="M95.083 58.008H50.747c.232 6.336 1.106 14.417 1.047 22.421a551.99 551.99 0 0 1-.101 7.144H94.1c-.026-2.311-.05-4.703-.069-7.144-.059-8 .815-16.085 1.047-22.421h.004z" fill="#11507F"/><path d="M94.451 46.198c3.388 1.343 5.384 3.007 10.12 15.464 1.659 4.369 4.087 13.123 4.352 19.508.157 3.79-15.303 3.882-15.303 3.882" fill="#11507F"/><path d="M100.913 91.753c1.59-.94 7.749-6.961 7.874-10.406.127-3.6-8.041-5.435-10.293-3.326-.645.602-4.094 5.35-5.596 7.476-1.267 1.79 5.55 6.96 8.015 6.256z" fill="#11507F"/><path d="M94.455 84.882s.7-.92 2.415-1.072c1.715-.155 3.738.689 4.595 2.759.995 2.402-.546 3.603-1.247 4.215-.7.611-5.763-5.902-5.763-5.902z" fill="#11507F"/><path d="M98.7 93.523s1.361-1.361 1.964-2.401c1.737-3.014-1.018-7.576-7.456-6.24-2.925.608-4.215 3.097-5.184 4.665 0 0-1.322 1.565-1.636 2.054-.903 1.42-1.833 2.943-.91 3.204.596.167 1.515-1.024 2.3-1.938.894-1.044 1.65-1.092 2.311-1.92.157-.022-1.292 1.572-1.688 2.061-.95 1.179-1.725 2.995-1.254 3.4.485.419 1.741-.84 2.998-2.073.71-.699 1.617-.982 2.297-1.674 0 0-.785.614-1.613 1.674-.874 1.117-1.721 2.147-1.162 2.736.449.474 1.764-.837 2.638-1.613.756-.672 2.045-1.352 3.047-2.137 1.155-.905-.848.785-1.384 1.362-.478.511-1.761 2.44-.56 2.51.684.043 1.45-.927 2.2-1.49 1.662-1.246 2.428-1.636 3.092-2.186v.006z" fill="#F7D6C4"/><path d="M91.415 85.568s-4.144 1.577-5.783 2.517c-1.637.94-1.66 2.286-.717 2.096.942-.19 2.461-.937 3.525-.66 1.901.493 5.534-4.26 2.975-3.953z" fill="#F7D6C4"/><path d="M91.72 89.686c.022.154-.037.196-.096.235l-.17.132c-.111.09-.222.18-.33.273-.216.187-.426.384-.629.583-.206.197-.396.406-.589.615-.095.103-.19.21-.278.322-.046.055-.092.11-.131.164-.04.058-.082.113-.236.097l-.052-.036c-.069-.135-.026-.196.02-.254a3.36 3.36 0 0 1 .13-.177 7.557 7.557 0 0 1 .893-.979 13.427 13.427 0 0 1 1.022-.837l.18-.129c.059-.045.121-.09.262-.016l.003.007zm2.355 1.712c.023.155-.036.197-.095.236l-.17.128-.34.261c-.223.177-.446.354-.662.541-.219.18-.432.367-.641.557-.105.093-.21.187-.308.287-.049.048-.101.096-.147.148-.046.054-.088.103-.239.07l-.049-.038c-.056-.139-.007-.197.043-.248a9.316 9.316 0 0 1 .455-.473c.209-.203.438-.383.66-.567.23-.177.462-.348.698-.518l.356-.248.18-.123c.06-.045.118-.083.259-.01V91.4zm2.69.802c.023.155-.036.197-.094.235l-.17.129-.341.26c-.223.178-.445.355-.661.542-.22.18-.432.367-.642.557-.104.093-.209.186-.307.286-.05.049-.102.097-.147.148-.046.055-.089.103-.24.071l-.048-.038c-.056-.139-.007-.197.042-.248.05-.055.098-.11.147-.161.099-.107.203-.21.308-.313.21-.203.439-.383.661-.566.23-.177.462-.348.697-.519l.357-.248.18-.122c.059-.045.118-.084.258-.01V92.2zm-6.335-4.993c.032.15-.02.193-.076.231l-.153.13-.305.263c-.2.177-.396.36-.586.547-.193.184-.376.377-.56.57-.091.097-.183.194-.268.293-.042.049-.088.1-.127.152-.04.055-.079.103-.23.08l-.052-.035c-.069-.132-.026-.187.02-.242.04-.058.085-.11.127-.164.085-.11.177-.212.266-.315.183-.207.38-.396.579-.583.203-.184.412-.36.625-.531l.324-.255.164-.122c.052-.045.108-.087.248-.016l.004-.003z" fill="#F1B889"/><path d="M98.31 78.446c-.068-.316.105-.48.275-.557.085-.048.167-.106.256-.148l.261-.116a5.968 5.968 0 0 1 1.084-.325 9.323 9.323 0 0 1 2.215-.161c.74.042 1.48.148 2.193.376.177.065.353.126.53.194l.514.238.491.293c.157.106.317.235.281.55a.111.111 0 0 1-.078.094h-.007c-.32.103-.442.013-.569-.09l-.432-.242-.462-.196-.481-.158a9.204 9.204 0 0 0-2.016-.357 8.606 8.606 0 0 0-2.055.07 5.15 5.15 0 0 0-.975.252l-.23.09c-.075.032-.14.077-.212.112-.072.036-.134.084-.213.107-.085.019-.186.016-.363-.03l-.007.004z" fill="#003765"/><path d="M84.256 94.978H39.25a.802.802 0 0 0-.809.796c0 .439.362.795.809.795h45.006a.802.802 0 0 0 .809-.795.802.802 0 0 0-.809-.796z" fill="#255D70"/><path d="M71.908 94.978H25.77a.24.24 0 0 0-.242.239v1.114a.24.24 0 0 0 .242.238h46.14a.24.24 0 0 0 .242-.238v-1.114a.24.24 0 0 0-.243-.239z" fill="#1376A0"/><path d="M71.98 94.467c.096.373-.147.679-.536.679H25.731a.255.255 0 0 1-.25-.193l-7.595-29.84c-.095-.373.147-.679.537-.679h45.203c.389 0 .788.306.883.68l7.472 29.353z" fill="#1376A0"/></g><defs><clipPath id="clip0_7569_275575"><path fill="#fff" d="M0 0h144v97.2H0z"/></clipPath></defs></svg>