<svg width="157" height="76" fill="none"
    xmlns="http://www.w3.org/2000/svg">
    <mask id="a" style="mask-type:alpha" maskUnits="userSpaceOnUse" x="0" y="0" width="37" height="37">
        <path fill="#D9D9D9" d="M0 0h36.022v36.022H0z"/>
    </mask>
    <g mask="url(#a)">
        <path d="M40.65-4.77H-4.46v45.108h45.108V-4.77z" fill="#AAA69F"/>
        <path d="M18.153 23.014C8.333 22.805 6 26.166 7.213 29.113c.73 1.771 5.436 2.995 10.94 2.433 5.505.562 10.211-.662 10.94-2.433 1.214-2.947-1.12-6.308-10.94-6.099z" fill="#C1D1D3"/>
        <path d="M18.68 27.014l-1.088-.003c-5.887.39-8.11 1.645-8.09 3.106l16.504.048h.748c.027-1.458-2.188-2.726-8.073-3.15v-.001z" fill="#F7D6C4"/>
        <path d="M22.58 21.17c-.221 1.208-.293 5.923-.15 6.865l-8.59-.024c.148-.94.103-5.656-.11-6.866l8.851.026-.001-.002z" fill="#F7D6C4"/>
        <path d="M6.123 41.58l23.93.07-6.062-13.86c-.302-.083-.375.041-.556.239-1.037 1.14-3.314 1.91-5.308 1.906-2.007-.006-4.265-.79-5.297-1.937-.179-.198-.252-.323-.555-.24L6.121 41.58h.002z" fill="#255D70"/>
        <path d="M16.177 41.653c-.037-5.401-.063-6.79-.063-6.845.01-2.908-2.052-3.381-2.237-7.358-1.552-.1-4.316-.402-7.216.738-3.21 1.263-5.652 4.407-6.178 5.574v.033c-.982 1.708-1.528 4.129-2.074 7.858h17.768zm3.922.055c-.056-5.393-.095-6.832-.095-6.89.009-2.907 2.382-3.982 2.382-7.349 1.551-.09 4.637-.316 7.55.786 2.395.906 4.563 3.486 5.73 5.495.027.043.052.09.078.135.006.01.012.023.02.033l.091.167.116.218v.004c.836 1.688 1.325 3.96 1.807 7.4h-17.68v.001z" fill="#C1D1D3"/>
        <path d="M9.85 30.609c.18.015.252.108.332.2a5.03 5.03 0 0 0 .8.725 4.6 4.6 0 0 0 .612.373c.22.114.44.227.658.345.435.242.868.487 1.277.785.203.152.403.312.58.513.089.098.167.217.227.346.063.126.095.278-.015.415l-.057.007c-.138-.106-.16-.2-.203-.296a1.064 1.064 0 0 0-.185-.266 3.45 3.45 0 0 0-.537-.454c-.395-.275-.815-.53-1.242-.768-.212-.124-.428-.241-.643-.36a4.787 4.787 0 0 1-1.208-.917 5.662 5.662 0 0 1-.255-.28c-.084-.093-.167-.19-.14-.37l-.002.002zm16.445 0c.027.179-.056.277-.14.37a5.645 5.645 0 0 1-.823.785 4.796 4.796 0 0 1-.64.412c-.215.118-.432.236-.644.359-.427.24-.848.493-1.242.768-.195.14-.385.286-.537.455a1.06 1.06 0 0 0-.184.266c-.043.096-.065.19-.203.296l-.058-.008c-.11-.138-.078-.288-.015-.415.06-.127.137-.246.227-.346.176-.201.378-.36.58-.512.408-.298.843-.543 1.276-.785.218-.119.439-.232.659-.346a4.533 4.533 0 0 0 1.16-.838c.088-.084.17-.17.251-.26.08-.091.152-.185.333-.2v-.001z" fill="#92A7AA"/>
        <path d="M18.093 6.217c-6.217-.25-7.569 5.163-7.49 8.373.088 3.477.165 6.207 1.36 7.803 1.489 1.985 3.652 3.724 6.129 3.652 2.476.072 4.64-1.668 6.129-3.652 1.195-1.596 1.272-4.326 1.359-7.803.081-3.21-1.272-8.623-7.49-8.373h.003z" fill="#F7D6C4"/>
        <path d="M18.256 13.776l.712 3.66c-.008.143-.42.245-.61.287-.356.078-.8.104-1.193.047-.119-.056-.075-.247-.063-.339.105-.85.62-3.099.762-3.631.07-.347.278-.67.394-.023l-.002-.001z" fill="#F1B889"/>
        <path d="M18.886 17.538c.29-.238-.703-.737-.978-.694-.357.056-.931.818-.743.925.395.224 1.233.063 1.721-.23v-.001z" fill="#ED9535"/>
        <path d="M22.686 11.767a3.261 3.261 0 0 0-3.078.11c-.28.137.093.454 1.917.601 1.645.133 2.248-.188 1.161-.71v-.001zm-9.536-.108a3.261 3.261 0 0 1 3.079.11c.28.136-.093.454-1.917.6-1.645.133-2.248-.187-1.161-.709v-.001z" fill="#003765"/>
        <path d="M18.045 20.997c-.646 0-1.138-.17-1.174-.181a.273.273 0 0 1 .182-.515c.013.005 1.335.456 2.365-.236a.273.273 0 0 1 .305.453c-.558.374-1.166.48-1.678.48z" fill="#F1A85D"/>
        <path d="M11.29 15.37c-.684-1.355-2.718-.672-2.658 1.016.048 1.345.83 3.22 3.293 3.378 0 0 .75-1.642-.636-4.394z" fill="#F7D6C4"/>
        <path d="M9.933 15.959c.1.099.086.135.07.181-.011.046-.019.092-.028.139-.012.095-.02.19-.016.284.004.19.043.38.103.56.06.183.148.356.248.523.049.084.11.162.161.245.029.039.06.078.092.117.033.036.065.074.006.197l-.042.039c-.125.045-.162.002-.195-.04-.037-.04-.074-.079-.109-.12-.064-.087-.134-.17-.19-.264a2.516 2.516 0 0 1-.276-.599 2.21 2.21 0 0 1-.081-.658 1.743 1.743 0 0 1 .081-.493c.012-.053.033-.116.176-.11v-.002z" fill="#F1B889"/>
        <path d="M24.897 15.48c.768-1.623 2.7-.598 2.702.795 0 1.296-1.18 3.766-3.478 3.625 0 0-.541-1.636.777-4.422l-.001.001z" fill="#F7D6C4"/>
        <path d="M25.93 15.975c.142.003.158.066.169.117.015.054.024.108.034.16.017.109.029.219.029.327a2.43 2.43 0 0 1-.083.65 2.678 2.678 0 0 1-.262.597c-.052.094-.12.178-.183.266-.033.042-.07.08-.104.123-.031.042-.067.086-.194.044l-.043-.038c-.062-.122-.032-.158 0-.195.028-.04.06-.077.087-.118.05-.084.11-.16.153-.246a2.84 2.84 0 0 0 .238-.524 2.102 2.102 0 0 0 .098-.846c-.006-.047-.012-.095-.021-.14-.012-.048-.025-.084.082-.176v-.001z" fill="#F1B889"/>
        <path d="M26.783 8.154c.551-1.863-1.844-3.499-3.57-4.148a7.32 7.32 0 0 0-1.215-.36c-.82-.583-2.037-1.091-3.775-1.067-2.24.031-3 .544-3.594 1.067-.11.021-.227.045-.35.072-1.799.4-3.036 1.26-4.105 3.272 0 0-3.023 3.44-.717 6.825l2.901-7.537c.727-.017 4.552-1.322 5.065-1.366.956-.08 5.053 1.244 6.525 1.423l2.519 8.615c2.756-3.026.314-6.796.314-6.796h.002z" fill="#003765"/>
        <path d="M20.17 4.499s-2.99-.847-6.577.747c-4.94 2.195-3.786 6.926-4.135 8.57-.349 1.646.969 1.159.969 1.159l.06-.219c.213.515.515 1.02.788 1.236.493.391-.053-.508.027-1.006.093-.577.28-.64.532-.64.229 0 .146-3.323.128-3.928.338-.706.714-1.297 1.152-1.735.598-.598.903-.585 1.061-.422.212.22.522.311.801.188a26.04 26.04 0 0 1 1.357-.561c2.058-.756 2.133 1.513 3.329.167 1.195-1.346.657.93 2.102-.815 1.248.713 2.097 2.162 2.663 3.604-.024 1.087-.056 3.502.138 3.502.251 0 .44.063.532.64.08.497-.466 1.396.027 1.006.27-.213.567-.708.78-1.215l.27-.022a.388.388 0 0 0 .356-.355c.752-9.35-6.361-9.9-6.361-9.9l.001-.001z" fill="#003765"/>
        <path d="M22.045 24.477c-3.966 3.274-7.802.24-7.802.24s1.323 2.511 3.903 2.427c2.369-.077 3.9-2.669 3.9-2.669v.002z" fill="#F1B889"/>
        <path d="M21.424 17.715c1.385 0 2.507-1.178 2.507-2.631 0-1.454-1.122-2.632-2.507-2.632-1.384 0-2.506 1.178-2.506 2.632 0 1.453 1.122 2.63 2.506 2.63z" fill="#fff"/>
        <path d="M21.424 17.94c-1.506 0-2.732-1.28-2.732-2.856 0-1.576 1.226-2.857 2.732-2.857 1.507 0 2.733 1.281 2.733 2.857 0 1.576-1.226 2.857-2.733 2.857zm0-5.262c-1.258 0-2.28 1.08-2.28 2.406s1.023 2.406 2.28 2.406c1.258 0 2.281-1.08 2.281-2.406s-1.023-2.406-2.28-2.406z" fill="#1376A0"/>
        <path d="M14.446 17.715c1.384 0 2.507-1.178 2.507-2.631 0-1.454-1.123-2.632-2.507-2.632-1.384 0-2.506 1.178-2.506 2.632 0 1.453 1.122 2.63 2.506 2.63z" fill="#fff"/>
        <path d="M14.446 17.94c-1.507 0-2.732-1.28-2.732-2.856 0-1.576 1.225-2.857 2.732-2.857 1.507 0 2.732 1.281 2.732 2.857 0 1.576-1.225 2.857-2.732 2.857zm0-5.262c-1.259 0-2.281 1.08-2.281 2.406s1.024 2.406 2.28 2.406c1.258 0 2.282-1.08 2.282-2.406s-1.024-2.406-2.281-2.406z" fill="#1376A0"/>
        <path d="M18.922 14.812a.22.22 0 0 1-.148-.056c-.815-.705-1.625-.028-1.66 0a.226.226 0 0 1-.294-.341c.389-.337 1.36-.77 2.249 0a.226.226 0 0 1-.147.397z" fill="#1376A0"/>
        <path d="M14.64 16.608c.886 0 1.605-.68 1.605-1.52s-.719-1.52-1.605-1.52-1.604.68-1.604 1.52.718 1.52 1.604 1.52z" fill="#fff"/>
        <path d="M14.63 15.824a.702.702 0 1 0 0-1.405.702.702 0 0 0 0 1.405z" fill="#003765"/>
        <path d="M21.446 16.609c.886 0 1.604-.68 1.604-1.52s-.718-1.52-1.604-1.52c-.886 0-1.604.68-1.604 1.52s.718 1.52 1.604 1.52z" fill="#fff"/>
        <path d="M21.412 15.824a.702.702 0 1 0 0-1.405.702.702 0 0 0 0 1.405z" fill="#003765"/>
        <path d="M16.045 24.178c.128.032.126.053.122.071v.059l-.008.117-.015.235a1.709 1.709 0 0 1-.036.231l-.028.114-.017.057c-.003.02-.006.04-.132.032l-.056-.012c-.117-.045-.114-.063-.108-.081l.006-.057c.003-.038.009-.075.014-.113.01-.075.025-.149.042-.223l.05-.222.023-.111.01-.056c0-.02.002-.036.135-.044l-.002.003zm.643.409c.128.031.126.052.122.07v.059l-.008.117-.015.235a1.693 1.693 0 0 1-.036.231c-.01.038-.018.077-.029.114l-.016.058c-.003.02-.006.039-.133.031l-.055-.012c-.117-.045-.114-.063-.108-.081l.006-.057c.003-.038.009-.075.013-.113.01-.075.026-.149.042-.223l.051-.222.023-.111.01-.056c0-.02.002-.036.134-.043l-.001.003zm.824-.319c.131.012.133.033.131.053l.006.058.012.118.018.234c.003.078.005.157-.003.235-.003.039-.006.078-.012.117l-.009.059c0 .02 0 .039-.126.05l-.057-.005c-.123-.027-.122-.045-.119-.065v-.057c-.004-.038-.004-.075-.004-.113 0-.075.004-.15.009-.225l.018-.226.006-.113.003-.057c-.003-.02-.003-.036.126-.061l.002-.002zm.678.409c.132.012.133.033.132.052l.006.059.01.117.018.235a1.662 1.662 0 0 1-.015.352l-.009.058c0 .02 0 .04-.126.05l-.057-.005c-.124-.027-.122-.045-.12-.064v-.057c-.004-.038-.004-.076-.004-.113 0-.075.005-.15.01-.226l.017-.225.006-.113.003-.057c-.003-.02-.003-.036.127-.062l.003-.001zm2.362-.624c.131.008.134.024.134.044l.01.055.023.112.051.222c.017.074.032.148.043.223.004.037.01.075.013.113l.006.057c.006.018.01.036-.108.08l-.056.013c-.126.007-.129-.012-.132-.032l-.017-.057a1.746 1.746 0 0 1-.065-.346l-.014-.234-.006-.117v-.06c-.006-.019-.008-.038.12-.07l-.002-.003zm-.642.407c.13.008.134.024.134.044l.01.056.023.111.051.223c.017.073.032.147.042.222l.014.113.006.057c.006.018.009.036-.109.081l-.055.012c-.127.008-.13-.012-.133-.031l-.016-.058a1.75 1.75 0 0 1-.065-.346l-.015-.234-.006-.117v-.059c-.006-.02-.007-.039.12-.07l-.001-.004zm-.826-.318c.129.025.129.043.126.061l.003.057.006.113.018.226c.006.075.009.15.009.225 0 .038 0 .075-.002.113v.057c0 .018.002.038-.121.065l-.058.004c-.124-.01-.126-.03-.126-.05l-.009-.058c-.006-.039-.009-.078-.012-.117a2.04 2.04 0 0 1-.003-.235l.018-.234.01-.118.007-.058c-.002-.02 0-.04.13-.053l.004.002z" fill="#335266"/>
    </g>
    <mask id="b" style="mask-type:alpha" maskUnits="userSpaceOnUse" x="40" y="0" width="37" height="37">
        <path fill="#D9D9D9" d="M40.023 0h36.022v36.022H40.023z"/>
    </mask>
    <g mask="url(#b)">
        <path d="M82.484-4.098H34.212v48.272h48.272V-4.098z" fill="#8AC0FF"/>
        <path d="M63.42 28.608l-.86 36.003c-.07.955-8.496.725-8.496.725L52.905 28.61s4.243 4.631 10.515 0v-.001z" fill="#F9F8F8"/>
        <path d="M53.863 27.848c.15-1.006.282-3.718.071-5.012l8.266-.375c-.007 1.128.3 4.563.463 5.199.47 1.607.129 4.288-3.934 4.288-4.063 0-4.988-2.634-4.867-4.1h.001z" fill="#E8BC9E"/>
        <path d="M62.2 25.032c-4.047 2.718-7.812.308-7.812.308s1.533 2.62 4.288 2.407c2.528-.197 3.522-2.715 3.522-2.715h.002z" fill="#DD8D52"/>
        <path d="M58.347 31.235s-.1-.996-.133-1.015c-1.125-.604-3.357-2.134-4.298-2.853l.013-.085s-.079.054-.12.108c-.09.2-.176.769-.395.973-.023.027-.557 1.237-.597 1.273l.013.026c-.093.15-.044.242-.01.339l.13.333c.09.219.184.433.28.647.194.426.414.84.635 1.253.23.41.465.815.74 1.209.069.098.143.196.227.293.045.048.09.098.15.146.033.026.065.052.125.077h.006c.102.052.22.03.32-.042a.614.614 0 0 0 .13-.098c.585-.455 2.612-2.135 2.784-2.585v.001z" fill="#C9C7C5"/>
        <path d="M58.176 31.235s.1-.996.133-1.015c1.125-.604 3.357-2.134 4.298-2.853l-.013-.085s.08.054.12.108c.09.2.176.769.395.973.023.027.557 1.237.597 1.273l-.013.026c.094.15.044.242.01.339l-.13.333c-.09.219-.184.433-.28.647-.194.426-.414.84-.634 1.253-.23.41-.465.815-.74 1.209-.07.098-.144.196-.227.293-.045.048-.09.098-.15.146-.034.026-.066.052-.126.077h-.006c-.101.052-.219.03-.32-.042a.613.613 0 0 1-.129-.098c-.586-.455-2.613-2.135-2.785-2.585v.001z" fill="#C9C7C5"/>
        <path d="M59.54 63.044s2.956-6.288 2.217-14.25c-.555-5.987-1.924-12.175-2.214-13.508a.485.485 0 0 0-.482-.363h-1.564a.485.485 0 0 0-.483.363c-.291 1.333-1.374 6.871-2.07 13.459-.838 7.953 2.072 14.301 2.072 14.301h2.524v-.002z" fill="#378445"/>
        <path d="M56.888 34.179c.053.34.394.595.798.595h1.163c.404 0 .745-.254.798-.595.056.392-.288.935-1.417.935-1.13 0-1.281-.472-1.342-.935z" fill="#20662A"/>
        <path d="M59.452 30.772c.655.106.882.366.805.777l-.59 2.652c-.056.346-.402.605-.81.605h-1.178c-.409 0-.755-.259-.81-.605l-.59-2.652c-.077-.412.153-.653.804-.777.374-.07 1.869-.082 2.367 0h.002z" fill="#378445"/>
        <path d="M52.956 29.586c.117-.316.833-2.153.853-2.196a.578.578 0 0 1 .119-.108l-.013.085c.941.72 3.173 2.25 4.298 2.853 0 0 .011.005.011.03-.28.13-.928.596-1.688 1.783-.664 1.041-1.034 1.772-1.3 1.75-.45-.033-2.359-3.993-2.282-4.197h.002zm10.612 0c-.118-.316-.834-2.153-.853-2.196a.578.578 0 0 0-.119-.108l.013.085c-.941.72-3.173 2.25-4.298 2.853 0 0-.011.005-.011.03.28.13.928.596 1.688 1.783.664 1.041 1.034 1.772 1.3 1.75.45-.033 2.359-3.993 2.282-4.197h-.002z" fill="#F9F8F8"/>
        <path d="M81.348 67.816s3.02-17.502-.708-30.817c-.853-2.747-10.234-6.32-10.234-6.32v.003c-1.892-.839-4.035-1.683-5.918-2.147-.254-.063-1.108-.56-1.351-.608-.214-.01-.194.04-.194.04s.342.91.388 1.054c.098.293-3.239 16.76-3.8 20.581-.296 1.756-.843 4.19-1.281 7.11-.438-2.92-.985-5.354-1.28-7.11-.563-3.821-3.9-20.288-3.801-20.58.048-.144.408-1.055.408-1.055s0-.051-.214-.04c-.243.048-1.097.545-1.351.608-1.883.465-4.026 1.31-5.917 2.147v-.004s-9.382 3.576-10.235 6.32c-3.728 13.314-.708 30.818-.708 30.818h46.196z" fill="#4E4C49"/>
        <path d="M58.524 59.766c.066-.322.167-.628.28-.929.114-.3.251-.59.378-.885l.78-1.758 1.56-3.518 3.118-7.035 3.143-7.025.392-.878.098-.22a.472.472 0 0 0 .058-.173.314.314 0 0 0-.122-.277l-.81-.486a63 63 0 0 1-.822-.505 32.118 32.118 0 0 1-1.612-1.068c-.523-.372-1.054-.774-1.41-1.334a.031.031 0 0 1 .01-.044.032.032 0 0 1 .034 0c.534.365 1.035.739 1.551 1.115.518.369 1.056.716 1.598 1.054.27.17.544.337.817.5l.412.247.206.122.103.061.052.03c.019.014.045.028.066.044.175.13.272.351.252.567a.797.797 0 0 1-.085.281l-.098.22-.391.88-3.131 7.03-3.154 7.018-1.577 3.51-.788 1.755c-.134.291-.258.587-.406.872a6.183 6.183 0 0 1-.504.829h.002zm8.223-24.453c-.032-.229.061-.385.153-.543l.267-.476.536-.95.267-.477c.042-.077.095-.164.129-.232a.434.434 0 0 0-.124-.537l-.422-.351a26.105 26.105 0 0 1-1.61-1.492l-.763-.782a14.393 14.393 0 0 0-.385-.378c-.133-.12-.264-.232-.323-.447l.037-.048c.225.008.375.132.507.259.136.125.268.252.399.381l.773.77a33.628 33.628 0 0 0 1.589 1.478l.41.354a.76.76 0 0 1 .193.941c-.051.093-.093.161-.14.243l-.277.472-.552.94-.276.472c-.089.16-.179.317-.391.404l.003-.001zm-8.766 24.452a6.022 6.022 0 0 1-.504-.828c-.148-.285-.272-.581-.405-.873l-.789-1.755-1.576-3.51-3.154-7.018-3.131-7.03-.391-.879-.099-.22a.799.799 0 0 1-.085-.282.643.643 0 0 1 .253-.566c.02-.016.045-.03.066-.044l.051-.03.103-.061.206-.122.412-.247c.274-.164.547-.331.817-.5.543-.34 1.079-.686 1.598-1.054.517-.375 1.019-.748 1.551-1.114a.031.031 0 0 1 .044.009.03.03 0 0 1 0 .033c-.356.562-.887.962-1.41 1.334-.526.375-1.066.726-1.612 1.069-.272.17-.547.34-.822.505l-.81.486a.312.312 0 0 0-.122.277.47.47 0 0 0 .058.173l.098.22.393.878 3.142 7.025 3.119 7.035 1.559 3.517.78 1.759c.127.294.266.584.378.885.113.3.214.606.28.928h.002zm-8.22-24.453c-.212-.087-.302-.246-.39-.404l-.278-.471-.552-.941-.276-.472c-.047-.082-.09-.15-.14-.243a.746.746 0 0 1-.086-.333.773.773 0 0 1 .279-.608l.41-.354c.547-.473 1.073-.97 1.588-1.479l.774-.769c.13-.129.262-.257.4-.381.131-.127.28-.251.506-.26l.037.049c-.061.215-.191.327-.323.447-.13.122-.258.25-.385.378l-.763.782a27.206 27.206 0 0 1-1.61 1.492l-.422.35a.436.436 0 0 0-.124.538c.036.068.087.155.13.232l.266.476.536.951.267.476c.092.158.185.314.153.543l.003.001z" fill="#68625A"/>
        <path d="M58.307 5.606c-6.653-.267-8.1 5.526-8.015 8.961.094 3.72.491 6.642 1.72 8.35 1.53 2.123 3.875 3.64 6.295 3.565 2.42.078 4.766-1.44 6.295-3.565 1.228-1.708 1.627-4.63 1.72-8.35.087-3.435-1.361-9.228-8.015-8.96z" fill="#E8BC9E"/>
        <path d="M58.328 14.142l.782 4.026c-.01.158-.462.27-.67.315a3.83 3.83 0 0 1-1.314.052c-.13-.061-.082-.27-.07-.373.115-.937.681-3.41.838-3.996.075-.381.305-.738.432-.025l.002.001z" fill="#E0A47C"/>
        <path d="M59.021 18.282c.319-.26-.774-.81-1.076-.762-.391.06-1.024.9-.818 1.017.436.246 1.357.069 1.896-.255h-.002z" fill="#DD8D52"/>
        <path d="M59.727 12.073c.244-.24.54-.393.85-.507.313-.11.643-.172.982-.17.338.003.684.069 1 .212.312.153.585.39.738.693a6.328 6.328 0 0 0-.89-.21 7.887 7.887 0 0 0-.85-.052c-.286 0-.579.011-.88.023-.302.011-.61.022-.949.011h-.001zm-3.557.005a6.585 6.585 0 0 1-.937.07c-.301.002-.594-.004-.884-.007-.29-.004-.574-.015-.859-.005a5.514 5.514 0 0 0-.896.084c.178-.289.489-.47.8-.581.316-.113.645-.147.967-.142.323.005.638.058.944.151.304.095.6.222.862.43h.002z" fill="#76533E"/>
        <path d="M54.453 16.51c.948 0 1.717-.728 1.717-1.626 0-.899-.769-1.627-1.717-1.627-.948 0-1.717.728-1.717 1.627 0 .898.769 1.627 1.717 1.627z" fill="#fff"/>
        <path d="M54.442 15.672a.751.751 0 1 0 0-1.502.751.751 0 0 0 0 1.502z" fill="#4E4C49"/>
        <path d="M58.52 21.594c-.497 0-.95-.127-1.243-.26a.29.29 0 0 1 .241-.528c.066.028 1.529.672 2.409-.443a.291.291 0 0 1 .407-.048.29.29 0 0 1 .048.407c-.523.663-1.227.87-1.863.87v.002z" fill="#DD8B6B"/>
        <path d="M61.572 16.308c.948 0 1.717-.728 1.717-1.627 0-.898-.769-1.626-1.717-1.626-.948 0-1.717.728-1.717 1.626 0 .899.77 1.627 1.717 1.627z" fill="#fff"/>
        <path d="M61.536 15.468a.751.751 0 1 0 0-1.503.751.751 0 0 0 0 1.503z" fill="#4E4C49"/>
        <path d="M51.028 15.4c-.73-1.45-2.907-.719-2.843 1.088.051 1.439.888 3.445 3.524 3.614 0 0 .803-1.757-.68-4.701z" fill="#E8BC9E"/>
        <path d="M49.577 16.028c.108.106.092.145.076.195-.013.048-.021.098-.03.148a1.753 1.753 0 0 0-.018.304c.004.204.046.407.11.6.065.195.158.38.266.558.051.09.117.174.172.263.03.041.065.083.098.125.036.039.07.079.007.21l-.045.043c-.134.048-.174.001-.21-.042-.038-.044-.078-.085-.115-.129-.07-.093-.143-.183-.205-.283a2.69 2.69 0 0 1-.294-.64 2.365 2.365 0 0 1-.087-.705c0-.12.02-.239.042-.354.013-.058.026-.116.045-.174.013-.056.035-.124.188-.118v-.001z" fill="#DD8D52"/>
        <path d="M65.587 15.518c.822-1.736 2.89-.639 2.891.851 0 1.387-1.261 4.031-3.722 3.88 0 0-.579-1.75.832-4.732l-.001.001z" fill="#E8BC9E"/>
        <path d="M66.694 16.047c.151.004.17.071.18.126.017.058.026.116.037.172.018.116.031.233.031.35.003.234-.029.467-.088.694a2.918 2.918 0 0 1-.28.64c-.057.1-.13.19-.197.284-.035.045-.074.087-.11.132-.035.045-.073.092-.208.046l-.047-.04c-.066-.13-.034-.169 0-.209.03-.042.064-.082.093-.125.053-.09.118-.173.164-.264.105-.179.189-.366.255-.56a2.253 2.253 0 0 0 .104-.906 2.352 2.352 0 0 0-.022-.15c-.013-.051-.026-.09.088-.188v-.002z" fill="#DD8D52"/>
        <path d="M50.408 15.418c-.307-1.198.852-2.11 2.432-2.803 1.581-.692 1.284-3.952 2.124-5.335.84-1.384 1.797-1.138 2.174-.634C60.023 4.63 60.7 6.8 61.54 8.182c.84 1.384.156 3.741 1.738 4.433 1.581.692 2.74 1.606 2.431 2.803l2.024-.328c.649.325 1.016-3.577-.095-6.23-2.314-5.529-5.958-6.758-10.5-5.075-3.082-.932-5.734.602-7.18 3.145-1.865 3.28-2.077 8.38-1.186 8.218l1.636.269v.001z" fill="#76533E"/>
        <path d="M60.15 17.75c.107-.098.144-.076.18-.052l.11.065.22.132c.144.09.288.183.428.283.14.101.275.208.4.331.065.06.124.126.182.197l.084.108c.029.037.058.078-.031.185l-.051.032c-.137.038-.155.011-.176-.02l-.077-.083c-.056-.055-.111-.111-.17-.163a8.126 8.126 0 0 0-.37-.315 8.23 8.23 0 0 0-.39-.304L60.286 18l-.103-.07c-.037-.02-.07-.043-.035-.183l.001.002z" fill="#DD8D52"/>
    </g>
    <mask id="c" style="mask-type:alpha" maskUnits="userSpaceOnUse" x="80" y="0" width="37" height="37">
        <path fill="#D9D9D9" d="M80.044 0h36.022v36.022H80.044z"/>
    </mask>
    <g mask="url(#c)">
        <path d="M122.374-4.213h-48.21v48.21h48.21v-48.21z" fill="#F4D05B"/>
        <path d="M88.646 32.456c-.262-1.576.567-3.244.83-4.88.319-2.003-1.362-3.18-.95-6.474.294-2.35.123-1.306-.197-2.846-.258-1.248.367.8.06-1.946-.347-3.103-.153-6.495.633-8.234.92-2.036 3.62-5.793 9.05-4.435 6.514-1.448 10.596 3.866 10.151 8.856-.595 5.454 1.596 4.562 1.204 10.601-.213 3.282-2.692 4.572-.115 9.43l-20.67-.07.004-.002z" fill="#4E4C49"/>
        <path d="M102.437 30.422H93.92s.405-5.004.207-7.297h8.101c-.197 2.293.208 7.297.208 7.297h.001z" fill="#E8BC9E"/>
        <path d="M101.679 24.807c-4.113 3.177-7.66.141-7.66.141s1.44 2.824 4.21 2.666c2.542-.145 3.451-2.807 3.451-2.807h-.001z" fill="#DD8D52"/>
        <path d="M89.856 13.596c-.183 8.828 2.519 11.483 6.572 12.567 5.438 1.456 8.35-6.076 8.35-6.076s2.77-11.56-4.624-13.642c-9.267-2.608-10.219 3.323-10.298 7.15v.001z" fill="#E8BC9E"/>
        <path d="M97.52 15.452l.627 3.229c-.009.127-.37.217-.537.254a3.082 3.082 0 0 1-1.054.04c-.105-.048-.066-.217-.057-.3.094-.75.548-2.734.674-3.204.06-.306.244-.59.347-.02v.001z" fill="#E0A47C"/>
        <path d="M98.074 18.772c.256-.209-.62-.651-.864-.612-.314.05-.822.721-.656.816.35.198 1.088.056 1.52-.204z" fill="#DD8D52"/>
        <path d="M98.914 12.45c.303-.238.654-.386 1.014-.495a3.913 3.913 0 0 1 1.12-.157c.382.006.77.07 1.133.215.36.153.691.39.901.713a7.214 7.214 0 0 0-1.035-.225 10.23 10.23 0 0 0-1.007-.06c-.339-.007-.683.004-1.035.01-.352.007-.71.014-1.093-.003l.002.002zm-3.584-.079c-.38.04-.737.053-1.088.068-.35.014-.694.02-1.032.046a10.39 10.39 0 0 0-.999.118 6.795 6.795 0 0 0-1.016.286c.188-.336.507-.593.855-.765.354-.167.738-.25 1.119-.28.38-.027.76.011 1.125.093.365.087.721.216 1.038.434h-.002z" fill="#4E4C49"/>
        <path d="M90.85 16.058c-.652-1.467-2.974-.752-3.042.669-.068 1.42.898 3.715 3.495 4.008 0 0 .876-1.698-.451-4.677h-.002z" fill="#E8BC9E"/>
        <path d="M89.279 16.556c.103.111.085.148.067.196-.016.047-.025.097-.037.145a1.7 1.7 0 0 0-.032.3c-.005.203.028.404.082.598.055.196.139.383.237.563.046.091.107.177.157.267.029.043.061.085.09.128.034.04.064.08-.005.209l-.046.04c-.137.042-.172-.005-.206-.051-.035-.045-.074-.087-.108-.134-.064-.095-.133-.188-.188-.289-.116-.2-.2-.42-.26-.646a2.335 2.335 0 0 1-.053-.7 1.83 1.83 0 0 1 .058-.35c.016-.056.032-.114.053-.17.016-.054.041-.12.193-.106h-.002z" fill="#DD8D52"/>
        <path d="M95.611 15.776c.043-.896-.69-1.66-1.635-1.704-.946-.045-1.748.645-1.79 1.541-.043.896.69 1.66 1.635 1.704.946.046 1.748-.644 1.79-1.54z" fill="#F7F1ED"/>
        <path d="M93.884 16.482a.75.75 0 1 0 0-1.5.75.75 0 0 0 0 1.5z" fill="#4E4C49"/>
        <path d="M97.702 21.801a2.77 2.77 0 0 1-.583-.057.29.29 0 0 1 .119-.567c.07.014 1.636.32 2.251-.959a.289.289 0 1 1 .521.251c-.506 1.053-1.538 1.33-2.31 1.33l.002.002z" fill="#DD8B6B"/>
        <path d="M102.911 15.84c.043-.897-.689-1.66-1.635-1.705-.946-.045-1.748.645-1.79 1.541-.043.896.689 1.66 1.635 1.705.946.045 1.747-.645 1.79-1.542z" fill="#F7F1ED"/>
        <path d="M101.157 16.546a.75.75 0 1 0 0-1.5.75.75 0 0 0 0 1.5z" fill="#4E4C49"/>
        <path d="M116.192 44.11c-.762-4.692-1-8.618-3.751-10.463-2.448-1.639-6.065-2.97-8.487-3.78-.297-.083-.371-.121-.548.073-.025.027-10.383.079-10.454 0-.176-.194-.249-.158-.547-.074-2.422.813-6.04 2.142-8.487 3.781-2.753 1.845-2.99 5.773-3.751 10.462" fill="#EC5A55"/>
        <path d="M104.088 31.137l-.127-2.47a.548.548 0 0 0-.553-.489c-3.749.072-8.838.016-10.394-.005a.547.547 0 0 0-.546.46l-.197 2.502h11.817v.002z" fill="#EC5A55"/>
        <path d="M100.091 5.088c-.304-.046-.406.002-.376.122-.842-.135-1.953-.125-2.647-.05l-.098-.253-4.887 1.324s-.867 1.057-1.5 1.946c-1.346 1.896-.304 7.077-.304 7.077.869-.745 1.909-1.44 2.39-1.689.036-.054.028-.276-.09-.93-.202-1.106.035-2.917.303-4.022.268-1.106.768-1.273.768-1.273-1.173 2.044-.437 6.12-.437 6.12.743-.314.558-.287.558-.287-.272-.723-.272-2.865.15-4.646.398-1.674 2.51-2.928 3.726-1.637.083.088.225.095.304.001.766-.919 2.698-.694 3.302 1.424.307 1.075.633 4.616.633 4.616l.543.09s.069-1.983-.221-3.933c1.002 3.15 2.995 4.37 2.995 4.37 1.146 1.63 1.328-2.549 1.328-2.549s-2.583-3.8-6.441-5.822l.001.001z" fill="#4E4C49"/>
        <path d="M95.339 5.882s-2.393 4.138-2.09 2.663c-.126-.246-.382-.29-.563 1.067-.33 2.475-3.682 4.602-3.682 4.602s-.514-2.892 1.45-5.688c1.963-2.797 4.885-2.644 4.885-2.644z" fill="#4E4C49"/>
    </g>
    <mask id="d" style="mask-type:alpha" maskUnits="userSpaceOnUse" x="120" y="0" width="37" height="37">
        <path fill="#D9D9D9" d="M120.066 0h36.022v36.022h-36.022z"/>
    </mask>
    <g mask="url(#d)">
        <path d="M161.05-3.426h-45.618v45.619h45.618V-3.426z" fill="#AEE26B"/>
        <path d="M139.184 28.904h-1.101c-5.952.412-8.198 1.687-8.174 3.165h17.448c.024-1.478-2.222-2.753-8.173-3.165z" fill="#F7D6C4"/>
        <path d="M143.108 22.981c-.219 1.223-.28 5.992-.132 6.943h-8.687c.147-.95.088-5.718-.133-6.943h8.952z" fill="#F7D6C4"/>
        <path d="M142.433 23.904c-4.218 4.653-7.859.208-7.859.208s1.478 3.466 4.319 3.235c2.608-.212 3.538-3.443 3.538-3.443h.002z" fill="#F1B889"/>
        <path d="M133.084 22.858c-1.031-.709-4.095-4.877-3.575-10.606 1.417-10.11 9.972-8.648 13.982-6.887 7.141 4.579 1.811 14.58 1.001 16.026-1.334 2.043-4.179 3.05-5.957 3.05-3.86 0-4.406-.54-5.451-1.583z" fill="#003765"/>
        <path d="M131.301 15.408c-.62-1.426-2.486-.564-2.459.86.027 1.425.954 3.66 3.101 3.788 0 0 .62-1.751-.642-4.648z" fill="#F7D6C4"/>
        <path d="M130.132 16.052c.114.086.103.128.094.178-.008.048-.011.098-.015.149a2.64 2.64 0 0 0 .102.893c.056.19.124.381.215.559.039.093.096.178.14.268.023.045.054.085.081.129.03.04.058.08-.012.199l-.047.035c-.131.032-.165-.015-.193-.06-.032-.047-.069-.088-.098-.136-.058-.094-.121-.186-.169-.288-.024-.05-.05-.099-.073-.15l-.059-.157c-.042-.103-.07-.213-.099-.32a2.978 2.978 0 0 1-.054-.998c.007-.056.015-.111.027-.166.008-.055.02-.117.163-.132l-.003-.003z" fill="#F1B889"/>
        <path d="M130.634 10.428c-1.016 2.221-.044 6.213.541 8.509.796 3.112 1.43 3.855 2.287 4.905 2.512 3.081 8.357 2.734 10.441-1.785.471-1.023.86-1.98 1.104-3.718.705-5.031.161-11.739-3.355-12.498-6.44-1.391-8.976.114-11.02 4.585l.002.002z" fill="#F7D6C4"/>
        <path d="M138.218 14.886l.607 3.715c-.008.127-.371.218-.538.254-.317.07-.709.093-1.057.041-.105-.048-.067-.217-.056-.3.094-.752.573-3.218.698-3.688.06-.307.246-.595.348-.02l-.002-.002z" fill="#F1B889"/>
        <path d="M138.754 18.693c.257-.21-.624-.652-.867-.614-.315.05-.824.724-.658.818.351.198 1.09.056 1.523-.204h.002z" fill="#ED9535"/>
        <path d="M141.754 6.971c.212-1.39-10.078-2.649-10.348 4.539-.002.06-.205-.34-.745.786-.309.628-.163 1.445-.066 2.24.019.146-.432.164-.535.06-1.169-1.2-2.003-4.046-.622-5.522-.205-1.785 3.496-6.084 6.606-5.047 2.738-1.481 8.17-.304 8.99 1.843 0 0 1.836.044 2.507 4.314.588 3.736-.625 7.325-1.667 7.343 0 0 .42-2.028-.804-5.257-.959-2.531-.68-4.02-3.318-5.299h.002z" fill="#003765"/>
        <path d="M135.663 12.695l-.955.079c-.305.026-.603.06-.895.106a7.505 7.505 0 0 0-.87.186c-.297.07-.575.188-.905.287.176-.286.426-.537.724-.704.295-.173.625-.292.962-.34a3.08 3.08 0 0 1 1.01.012c.329.063.652.173.931.374h-.002zm3.889.055c.249-.233.556-.384.874-.49.319-.104.66-.15 1.001-.143.34.003.682.079.997.213.318.126.596.345.808.605-.339-.056-.631-.137-.934-.169a7.261 7.261 0 0 0-.887-.073 12.787 12.787 0 0 0-.901.01l-.958.046v.002z" fill="#003765"/>
        <path d="M137.941 21.859a2.89 2.89 0 0 1-.596-.058.277.277 0 0 1-.213-.327.277.277 0 0 1 .327-.213c.073.015 1.704.336 2.346-.999a.276.276 0 0 1 .497.239c-.517 1.075-1.572 1.358-2.361 1.358z" fill="#F1A85D"/>
        <path d="M144.641 15.528c.45-1.488 2.403-.85 2.543.57.14 1.418-.52 3.745-2.639 4.122 0 0-.819-1.668.096-4.691z" fill="#F7D6C4"/>
        <path d="M145.875 16.033c.145 0 .163.059.177.112.018.053.032.108.047.163a2.936 2.936 0 0 1 .062 1c-.016.108-.032.221-.061.329l-.041.163c-.016.053-.036.105-.056.158-.035.106-.087.205-.134.305-.022.05-.053.098-.08.146-.025.05-.052.1-.186.084l-.05-.029c-.084-.11-.061-.152-.036-.197.021-.046.047-.09.063-.137.035-.096.081-.186.108-.283.07-.189.116-.385.149-.581a2.73 2.73 0 0 0 .034-.6 2.48 2.48 0 0 0-.035-.297c-.011-.049-.02-.1-.034-.146-.015-.049-.032-.088.073-.187v-.003z" fill="#F1B889"/>
        <path d="M158.539 43.78c-.886-6.186-1.784-8.86-4.632-10.534-1.665-.98-6.671-2.832-9.35-3.57-.088-.025-1.423-.319-1.648-.335-1.285-.092-2.833.888-4.275.888-1.441 0-2.989-.981-4.274-.888-.225.016-1.56.31-1.649.334-2.679.74-7.685 2.591-9.35 3.57-2.848 1.675-3.745 4.35-4.632 10.535h39.81z" fill="#255D70"/>
        <path d="M133.45 29.726a.142.142 0 0 1-.003-.153c.24-.388.667-1.97.753-2.161.041-.056.167-.113.167-.113v.133c.968.731 3.036 2.179 4.2 2.823a.144.144 0 0 0 .14 0c1.163-.646 3.231-2.092 4.2-2.823v-.133s.126.057.167.113c.086.191.512 1.773.752 2.16a.138.138 0 0 1-.003.154l-.003.006.072.052c.077.06.046.259-.149.598l-.992 1.408c-.45.622-.907 1.23-1.409 1.832-.075.078-.125.146-.221.231l-.067.061c-.036.027-.07.055-.13.079a.478.478 0 0 1-.356 0c-.178-.079-.248-.172-.327-.254-.076-.085-.135-.169-.196-.252a8.658 8.658 0 0 1-.323-.517c-.346-.537-.693-1.501-1.087-1.494-.398-.007-.751.986-1.102 1.517-.096.165-.196.33-.309.492-.059.084-.12.167-.196.253-.079.082-.149.174-.327.254a.464.464 0 0 1-.356 0c-.062-.026-.096-.054-.131-.08l-.067-.06c-.097-.085-.146-.154-.22-.231-.503-.604-.96-1.21-1.41-1.833h.003l-.991-1.408c-.195-.339-.227-.538-.149-.598l.071-.051-.003-.006" fill="#307286"/>
        <path d="M143.211 27.733c-.082-.201-.119-.324-.152-.336a.661.661 0 0 0-.151-.096v.132a58.153 58.153 0 0 1-2.906 2.032c-.588.37-1.087.67-1.32.786-.018.009-.026.027-.018.047.141.327.616 1.327 1.081 2.158.692 1.234.948 1.397 1.135 1.236.603-.522 3.099-3.872 3.02-4.083a305.34 305.34 0 0 1-.689-1.875v-.001zm-4.613 2.517c-.247-.124-.801-.457-1.443-.864a57.956 57.956 0 0 1-2.788-1.954v-.133s-.104.047-.154.1l-.011.008-.004.005a.113.113 0 0 0-.006.017c-.028.051-.063.155-.123.304-.336.921-.568 1.55-.689 1.875-.079.211 2.416 3.562 3.02 4.082.185.16.442 0 1.134-1.236.465-.83.938-1.83 1.081-2.158.008-.02 0-.036-.018-.047h.001z" fill="#255D70"/>
        <path d="M141.926 7.245s-1.893 2.332-3.61 2.904c-1.554.519-1.452-.044-1.101-.572.353-.527 1.326-2.323-.176-1.056-1.408 1.189-2.059 2.045-3.026 1.868-.78-.141.768-1.76.943-2.641.176-.88-1.796 2.293-3.551 3.763-2.327 1.95-.792-6.204 5.193-6.336 5.987-.132 5.327 2.068 5.327 2.068l.001.002z" fill="#003765"/>
        <path d="M136.013 15.707c.019-.84-.684-1.54-1.571-1.561-.888-.021-1.623.644-1.643 1.485-.02.841.683 1.54 1.571 1.561.887.021 1.623-.643 1.643-1.485z" fill="#fff"/>
        <path d="M134.461 16.439a.728.728 0 1 0 0-1.457.728.728 0 0 0 0 1.457z" fill="#003765"/>
        <path d="M143.087 15.819c.02-.842-.684-1.54-1.571-1.562-.887-.02-1.623.644-1.643 1.485-.02.842.683 1.54 1.571 1.562.887.02 1.623-.644 1.643-1.485z" fill="#fff"/>
        <path d="M141.434 16.527a.728.728 0 1 0 .001-1.457.728.728 0 0 0-.001 1.457zm.176-9.157s3.347.439 2.844 5.785c-.125 1.33.529.262 1.321-1.006 1.258-2.014-1.158-10.505-4.165-4.781v.001z" fill="#003765"/>
    </g>
    <mask id="e" style="mask-type:alpha" maskUnits="userSpaceOnUse" x="0" y="39" width="37" height="37">
        <path fill="#D9D9D9" d="M0 39.89h36.022v36.022H0z"/>
    </mask>
    <g mask="url(#e)">
        <path d="M39.699 38.42h-44.11v44.11H39.7V38.42z" fill="#B3A7C1"/>
        <path d="M7.32 65.098c-.473-3.842 2.422-4.965 1.407-7.236-.51-1.14.62.305-.312-2.238-.998-2.725-.683-5.61.087-7.315.9-1.994 3.764-4.506 5.578-4.233 8.903-3.154 13.89 2.95 13.453 7.839-.59 5.378 3.96 6.679.532 13.713 0 0-3.402-1.563-6.62-.178-3.428 1.479-5.734.59-9.28-.296-1.3-.324-4.152-.423-4.846-.06v.004z" fill="#A23F3F"/>
        <path d="M22.548 69.78h-8.345s.397-4.903.203-7.15h7.937c-.194 2.247.203 7.15.203 7.15h.002z" fill="#F7D6C4"/>
        <path d="M21.805 64.279c-4.03 3.112-7.504.138-7.504.138s1.41 2.767 4.125 2.612c2.489-.141 3.38-2.75 3.38-2.75h-.002z" fill="#F1B889"/>
        <path d="M10.22 53.296c-.179 8.648 2.468 11.249 6.438 12.312 5.328 1.426 8.181-5.953 8.181-5.953s3.754-10.766-3.489-12.803c-9.08-2.556-11.05 2.695-11.128 6.444h-.002z" fill="#F7D6C4"/>
        <path d="M17.73 55.116l.613 3.163c-.008.124-.362.212-.526.249-.308.068-.69.09-1.032.04-.103-.048-.065-.213-.055-.294.09-.735.536-2.68.66-3.14.059-.3.238-.578.34-.02v.002z" fill="#F1B889"/>
        <path d="M18.274 58.367c.25-.204-.608-.637-.847-.6-.307.05-.805.707-.642.8.343.194 1.066.055 1.489-.2z" fill="#ED9535"/>
        <path d="M19.395 53.05c.246-.208.533-.345.832-.454a3.2 3.2 0 0 1 .94-.18c.322-.01.653.036.962.147.307.121.582.322.766.58a4.41 4.41 0 0 0-.858-.246 5.567 5.567 0 0 0-.856-.042c-.58.02-1.157.118-1.786.193v.002zm-4.106-.165c-.633 0-1.219-.03-1.797.02a5.25 5.25 0 0 0-.845.142c-.276.08-.539.196-.824.345.153-.279.403-.51.693-.666a2.59 2.59 0 0 1 .938-.261c.323-.027.644 0 .954.067.31.073.611.175.879.353h.002z" fill="#A23F3F"/>
        <path d="M11.195 55.708c-.639-1.438-2.914-.737-2.98.655-.066 1.391.88 3.64 3.425 3.926 0 0 .858-1.662-.443-4.581h-.002z" fill="#F7D6C4"/>
        <path d="M9.655 56.195c.1.109.084.145.066.192-.016.046-.025.095-.036.142a1.67 1.67 0 0 0-.031.294c-.005.199.026.396.08.586.053.192.135.375.231.551.046.09.106.173.155.262.028.042.06.083.088.126.033.039.063.078-.005.204l-.046.04c-.133.04-.168-.005-.201-.05-.035-.045-.073-.086-.106-.131-.063-.093-.13-.185-.185-.284a2.577 2.577 0 0 1-.256-.633 2.289 2.289 0 0 1-.051-.686c.006-.115.028-.23.056-.342.016-.055.032-.112.052-.167.016-.053.041-.118.19-.104z" fill="#F1B889"/>
        <path d="M15.859 55.946c.041-.878-.676-1.626-1.603-1.67-.926-.044-1.712.632-1.753 1.51-.042.878.675 1.626 1.602 1.67.926.044 1.712-.632 1.754-1.51z" fill="#fff"/>
        <path d="M14.166 56.638a.735.735 0 1 0 0-1.47.735.735 0 0 0 0 1.47z" fill="#003765"/>
        <path d="M17.908 61.337c-.218 0-.415-.022-.572-.057a.285.285 0 0 1 .117-.556c.064.015 1.602.318 2.205-.938a.283.283 0 1 1 .51.245c-.495 1.032-1.506 1.303-2.262 1.303l.002.003z" fill="#F1A85D"/>
        <path d="M27.09 53.537c.328-3.059-1.596-8.103-7.355-8.672-11.703-1.154-9.503 9.507-9.503 9.507s.511-2.575 2.767-4.393c2.167-1.745 1.685-3.43 1.685-3.43 1.505 1.504 1.723 3.495 3.541 4.57 1.95 1.152 4.097.775 6.028 1.95 2.04 1.241-.198 3.645 1.73 6.216.772 1.093 1.108-5.746 1.108-5.746v-.002z" fill="#A23F3F"/>
        <path d="M23.012 56.007c.042-.878-.675-1.626-1.602-1.67-.927-.045-1.712.631-1.754 1.51-.042.878.675 1.625 1.602 1.67.927.044 1.712-.632 1.754-1.51z" fill="#fff"/>
        <path d="M21.294 56.699a.735.735 0 1 0 0-1.47.735.735 0 0 0 0 1.47z" fill="#003765"/>
        <path d="M.729 83.192c.746-4.596.979-8.443 3.674-10.25 2.398-1.606 5.942-2.91 8.315-3.705.291-.08.364-.118.537.073.069.077 10.216.026 10.241 0 .174-.19.245-.155.537-.073 2.373.797 5.917 2.099 8.315 3.705 2.697 1.807 2.928 5.655 3.675 10.25H.729z" fill="#26519F"/>
        <path d="M12.587 70.48l.192-2.45a.535.535 0 0 1 .535-.45c1.524.02 6.509.075 10.184.004a.536.536 0 0 1 .541.478l.125 2.42" fill="#26519F"/>
    </g>
    <mask id="f" style="mask-type:alpha" maskUnits="userSpaceOnUse" x="40" y="39" width="37" height="37">
        <path fill="#D9D9D9" d="M40.023 39.89h36.022v36.022H40.023z"/>
    </mask>
    <g mask="url(#f)">
        <path d="M81.041 37.137H35.19V82.99h45.85V37.137z" fill="#69D9DE"/>
        <path d="M58.676 68.195l-1.107-.004c-5.983.398-8.244 1.672-8.224 3.158l16.777.049h.76c.027-1.483-2.224-2.771-8.206-3.202v-.001z" fill="#F7D6C4"/>
        <path d="M51.08 83.083l13.981.07-.989-14.168c-.307-.086-.382.041-.565.241-1.055 1.159-3.369 1.943-5.395 1.938-2.04-.006-4.336-.804-5.385-1.968-.182-.202-.256-.329-.564-.245l-1.085 14.132h.002z" fill="#255D70"/>
        <path d="M53.812 67.395s-2.956 1.593-3.214 2.11c-.259.516-3.655 13.673-3.655 13.673l5.686-.017L53.812 68.6v-1.204z" fill="#98B5B7"/>
        <path d="M50.967 83.142c.41-5.462 1.25-14.172 1.19-14.156-2.69.75-7.716 2.628-9.387 3.617-2.858 1.691-3.752 4.381-4.625 10.602l12.824-.061-.002-.002z" fill="#98B5B7"/>
        <path d="M48.693 83.172a1.166 1.166 0 0 1-.151-.53l-.026-.532-.051-1.069-.1-2.136-.099-2.137-.09-2.137.008.041a.258.258 0 0 1-.008-.075.22.22 0 0 1 .032-.091.284.284 0 0 1 .017-.023c.023-.028.04-.04.055-.054a.689.689 0 0 1 .087-.056c.054-.03.106-.057.158-.08.102-.047.204-.088.305-.128.204-.08.407-.151.61-.223l.61-.21.303-.105.148-.053.07-.028c.019-.008.05-.025.04-.017l.003.266-2.146-1.508a.159.159 0 0 1-.04-.22c.005-.008.013-.016.019-.022l1.328-1.32c.221-.22.44-.444.672-.653.234-.206.474-.41.742-.582a.03.03 0 0 1 .04.009.03.03 0 0 1 0 .032 6.433 6.433 0 0 1-.583.74c-.21.232-.434.449-.653.67l-1.322 1.327-.021-.241 2.152 1.5.006.004a.157.157 0 0 1-.003.26c-.055.036-.073.04-.104.053l-.08.032-.154.058-.306.107-.606.211c-.202.072-.402.144-.598.222a5.05 5.05 0 0 0-.287.122c-.046.021-.09.044-.13.066a.655.655 0 0 0-.047.03c-.005.003-.008.008-.004 0l.005-.006s.008-.01.01-.018a.116.116 0 0 0 .008-.037.14.14 0 0 0-.006-.055l.008.041.084 2.137.076 2.138.074 2.139.037 1.068.018.535c.001.179-.017.357-.107.54l-.003-.002z" fill="#739293"/>
        <path d="M62.635 62.254c-.225 1.228-.298 6.021-.153 6.978l-8.732-.024c.152-.956.106-5.749-.111-6.979l8.997.026-.001-.002z" fill="#F7D6C4"/>
        <path d="M62.419 67.395s2.956 1.593 3.214 2.11c.258.516 3.654 13.673 3.654 13.673l-5.685-.017L62.419 68.6v-1.204z" fill="#98B5B7"/>
        <path d="M65.263 83.142c-.41-5.462-1.25-14.172-1.19-14.156 2.69.75 7.716 2.628 9.387 3.617 2.858 1.691 3.752 4.381 4.625 10.602" fill="#98B5B7"/>
        <path d="M67.537 83.171a1.146 1.146 0 0 1-.107-.54l.019-.534.037-1.069.073-2.138.076-2.138.084-2.137.008-.041a.138.138 0 0 0 .003.092c.001.006.006.012.01.018l.004.006s.001.002-.003 0a1.467 1.467 0 0 0-.177-.096 5.414 5.414 0 0 0-.288-.122c-.196-.078-.397-.15-.597-.222l-.607-.21-.306-.108-.154-.058-.08-.032c-.03-.014-.049-.018-.104-.054a.158.158 0 0 1-.004-.26l.006-.006 2.152-1.499-.022.242-1.322-1.327c-.22-.222-.443-.439-.652-.671a6.273 6.273 0 0 1-.584-.74.03.03 0 0 1 .009-.041.03.03 0 0 1 .032 0c.268.174.507.376.741.582.233.21.451.433.673.653l1.328 1.32a.157.157 0 0 1 0 .224l-.021.018-2.146 1.508.003-.265c-.01-.007.021.01.04.016l.07.028.148.053.303.106.61.21c.203.071.406.143.61.222.102.04.203.081.305.129.052.024.103.049.158.08.027.016.055.031.087.056a.346.346 0 0 1 .072.076.208.208 0 0 1 .032.092.182.182 0 0 1-.008.075l.008-.041-.09 2.136-.098 2.137-.101 2.137-.05 1.068-.027.533a1.132 1.132 0 0 1-.151.53l-.002.002z" fill="#739293"/>
        <path d="M58.036 47.053c-6.32-.253-7.694 5.249-7.613 8.512.089 3.534.959 6.31 2.045 7.93 1.353 2.018 3.317 3.787 5.567 3.713 2.25.074 4.215-1.695 5.566-3.712 1.087-1.622 1.956-4.397 2.045-7.931.082-3.263-1.293-8.765-7.613-8.512h.003z" fill="#F7D6C4"/>
        <path d="M58.07 55.145l.79 3.517c-.008.137-.465.235-.675.275-.396.075-.888.1-1.327.044-.13-.053-.084-.237-.07-.325.118-.818.69-2.98.847-3.49.076-.333.309-.645.437-.023l-.002.002z" fill="#F1B889"/>
        <path d="M58.773 58.76c.32-.227-.781-.708-1.087-.666-.396.054-1.033.788-.825.889.44.215 1.368.06 1.912-.222z" fill="#ED9535"/>
        <path d="M62.428 52.9c-1.244-.48-2.438-.244-3.129.09-.286.11.095.37 1.949.49 1.672.108 2.285-.153 1.18-.58zm-9.526 0c1.244-.48 2.438-.244 3.129.09.285.11-.095.37-1.949.49-1.672.108-2.285-.153-1.18-.58z" fill="#4E4C49"/>
        <path d="M54.377 57.309c.9 0 1.63-.692 1.63-1.545 0-.854-.73-1.546-1.63-1.546-.9 0-1.63.692-1.63 1.545 0 .854.73 1.546 1.63 1.546z" fill="#fff"/>
        <path d="M54.366 56.513a.714.714 0 1 0 0-1.428.714.714 0 0 0 0 1.428z" fill="#4E4C49"/>
        <path d="M57.986 62.076c-.657 0-1.156-.173-1.193-.185a.277.277 0 0 1 .185-.523c.014.005 1.357.463 2.404-.24a.278.278 0 0 1 .31.46c-.567.381-1.186.49-1.706.49v-.002z" fill="#F1A85D"/>
        <path d="M61.139 57.31c.9 0 1.63-.693 1.63-1.546 0-.853-.73-1.545-1.63-1.545-.901 0-1.631.692-1.631 1.545s.73 1.545 1.63 1.545z" fill="#fff"/>
        <path d="M61.102 56.513a.714.714 0 1 0 0-1.428.714.714 0 0 0 0 1.428z" fill="#4E4C49"/>
        <path d="M64.95 56.468c.781-1.65 2.745-.607 2.747.808 0 1.318-1.198 3.829-3.535 3.685 0 0-.55-1.663.79-4.495l-.002.002z" fill="#F7D6C4"/>
        <path d="M66.004 56.969c.143.003.16.067.171.119.015.055.024.11.035.163.017.11.03.222.03.332a2.49 2.49 0 0 1-.085.66c-.067.211-.15.42-.266.607-.053.096-.122.182-.186.27-.034.044-.07.083-.106.126-.032.043-.069.087-.197.044l-.044-.038c-.063-.124-.032-.16 0-.199.029-.04.06-.078.088-.119.05-.085.112-.163.156-.25.1-.17.18-.347.242-.532a2.138 2.138 0 0 0 .1-.86c-.007-.048-.013-.097-.022-.143-.013-.049-.025-.086.084-.179v-.001z" fill="#F1B889"/>
        <path d="M59.632 48.92c-1.215 1.367-1.292-.94-3.384-.17-.408.15-.955.383-1.378.57-.285.125-.6.032-.815-.191-.16-.166-.436-.141-1.08.429-1.584 1.405-1.764 3.645-2.53 6.456 0 0-.984-.442-1.186-1.238.354-1.672-.82-6.479 4.203-8.712 3.647-1.62 6.685-.76 6.685-.76s7.4.57 6.438 10.396l-1.07.09s-.728-5.974-3.748-7.7c-1.469 1.774-.922-.539-2.137.83h.002z" fill="#4E4C49"/>
        <path d="M66.663 49.112c-.438-2.422-1.668-3.648-3.42-4.307a9.574 9.574 0 0 0-.669-.225c-.611-.646-1.574-1.225-3.038-1.118-1.747.128-2.872.42-3.736.75-.29-.063-.755-.093-1.497-.021-1.784.17-3.516 1.25-4.315 3.648 0 0-3.072 3.497-.73 6.937l6.105-8.955a36.343 36.343 0 0 0 1.993-.094c.978-.083 3.325.689 4.82.863l4.41 9.11c2.802-3.076.078-6.588.078-6.588h-.001z" fill="#4E4C49"/>
        <path d="M66.27 54.593c.017.638-.585 1.997-1.085 2.393-.501.398.054-.517-.027-1.022-.095-.587-.202-1.56-.38-1.741-.86-.876-.62-2.525-.29-2.999 0 0 1.766 2.728 1.782 3.367v.002z" fill="#4E4C49"/>
        <path d="M51.123 56.357c-.694-1.377-2.762-.684-2.7 1.033.048 1.366.843 3.272 3.346 3.433 0 0 .763-1.67-.646-4.466z" fill="#F7D6C4"/>
        <path d="M49.745 56.953c.102.1.087.137.072.185-.013.045-.02.093-.03.14a1.667 1.667 0 0 0-.016.289c.005.194.044.387.105.57.062.185.15.36.253.53.049.086.111.166.163.25.03.04.061.08.093.119.034.036.066.075.006.2l-.042.04c-.127.046-.165.001-.199-.04-.037-.041-.075-.081-.11-.122-.066-.089-.136-.174-.194-.27a2.559 2.559 0 0 1-.28-.608 2.246 2.246 0 0 1-.082-.669 1.771 1.771 0 0 1 .082-.501c.012-.054.034-.118.179-.112v-.001z" fill="#F1B889"/>
        <path d="M50.02 54.593c-.016.638.586 1.997 1.086 2.393.501.398-.053-.517.027-1.022.095-.587.019-1.468.149-1.688.568-.963.263-1.533.52-3.052 0 0-1.764 2.728-1.781 3.367v.002z" fill="#4E4C49"/>
        <path d="M62.056 65.022c-4.032 3.33-7.931.245-7.931.245s1.345 2.553 3.968 2.467c2.407-.078 3.963-2.713 3.963-2.713v.001z" fill="#F1B889"/>
    </g>
    <mask id="g" style="mask-type:alpha" maskUnits="userSpaceOnUse" x="80" y="39" width="37" height="37">
        <path fill="#D9D9D9" d="M80.044 39.89h36.022v36.022H80.044z"/>
    </mask>
    <g mask="url(#g)">
        <path d="M122 35.025H74.952v47.048H122V35.025z" fill="#AAA69F"/>
        <path d="M98.363 63.402c-6.399-.618-7.741-3.1-8.419-6.372-2.312-2.66-2.757-7.495-.919-10.677 2.404-4.159 6.557-5.069 8.953-3.957 5.304-1.54 7.76 1.653 9.415 6.029.928 2.456 1.207 4.99-.683 8.086-2.758 4.52-5.396 6.718-8.347 6.892v-.001z" fill="#003765"/>
        <path d="M98.967 67.824h-1.048c-5.661.392-7.797 1.605-7.775 3.011l.492 6.146h15.386l.72-6.146c.022-1.405-2.112-2.617-7.775-3.01z" fill="#F7D6C4"/>
        <path d="M79.563 82.46c.798-4.578 1.047-8.41 3.931-10.21 2.564-1.6 5.63-2.898 8.382-3.69.34-.08.422-.118.623.072.011.01 2.094 3.95 5.942 3.95 3.849 0 5.93-3.94 5.942-3.95.201-.19.284-.154.623-.072 2.754.793 5.818 2.09 8.382 3.69 2.886 1.8 3.134 5.633 3.932 10.21H79.563z" fill="#D362AF"/>
        <path d="M102.599 69.1h-8.312s.395-4.884.202-7.121h7.906c-.193 2.237.202 7.121.202 7.121h.002z" fill="#F7D6C4"/>
        <path d="M101.844 63.293c-3.874 3.273-7.462.466-7.462.466s1.524 2.691 4.218 2.418c2.472-.25 3.244-2.886 3.244-2.886v.002z" fill="#F1B889"/>
        <path d="M90.67 52.681c-.172 8.615 2.346 11.206 6.123 12.264 5.067 1.42 7.781-5.93 7.781-5.93s3.569-10.723-3.319-12.753c-8.636-2.545-10.51 2.685-10.584 6.42h-.002z" fill="#F7D6C4"/>
        <path d="M97.797 54.494l.612 3.15c-.008.124-.36.212-.524.248-.307.067-.688.09-1.028.04-.102-.048-.065-.213-.055-.293.09-.732.534-2.669.657-3.127.06-.3.238-.577.338-.02v.002z" fill="#F1B889"/>
        <path d="M98.34 57.733c.25-.204-.605-.636-.843-.598-.306.049-.802.704-.64.797.342.193 1.061.055 1.483-.2z" fill="#ED9535"/>
        <path d="M99.249 51.3c.273-.225.6-.37.939-.47a3.24 3.24 0 0 1 1.057-.112 2.82 2.82 0 0 1 1.04.263c.323.155.615.375.824.659a7.314 7.314 0 0 0-.949-.31 5.336 5.336 0 0 0-.943-.142 7.611 7.611 0 0 0-.964.006c-.328.02-.654.063-1.002.106h-.002zm-3.799-.09c-.33.017-.647.023-.957.033-.31.01-.617.02-.918.052-.3.033-.594.075-.884.15a4.457 4.457 0 0 0-.863.348c.157-.294.425-.53.726-.691a2.79 2.79 0 0 1 .974-.276 3.47 3.47 0 0 1 .993.048c.323.065.641.162.928.334l.002.002z" fill="#003765"/>
        <path d="M91.185 54.386c-.637-1.432-2.903-.734-2.969.653-.066 1.386.877 3.625 3.411 3.91 0 0 .855-1.655-.44-4.563h-.002z" fill="#F7D6C4"/>
        <path d="M89.756 54.924c.1.108.084.144.066.191-.015.046-.025.094-.036.141a1.667 1.667 0 0 0-.031.294c-.005.197.026.393.08.583.053.191.135.373.23.549.046.09.106.172.154.26.028.042.06.083.088.126.033.039.063.078-.005.204l-.045.039c-.134.04-.168-.005-.201-.05-.034-.044-.072-.085-.105-.13-.063-.093-.13-.184-.185-.283a2.565 2.565 0 0 1-.254-.63 2.28 2.28 0 0 1-.052-.684c.006-.115.028-.23.056-.34.016-.055.032-.112.052-.167.016-.053.041-.117.188-.103z" fill="#F1B889"/>
        <path d="M96.092 54.52c.042-.875-.673-1.62-1.596-1.664-.923-.044-1.705.63-1.747 1.504-.041.875.673 1.62 1.596 1.663.923.045 1.706-.629 1.747-1.504z" fill="#fff"/>
        <path d="M94.407 55.209a.732.732 0 1 0 0-1.465.732.732 0 0 0 0 1.465z" fill="#003765"/>
        <path d="M97.978 60.689c-.217 0-.413-.022-.57-.056a.283.283 0 0 1 .116-.554c.065.014 1.597.317 2.198-.935a.282.282 0 1 1 .508.245c-.494 1.027-1.501 1.297-2.254 1.297l.002.003z" fill="#F1A85D"/>
        <path d="M104.547 54.326c.704-1.399 2.539-.594 2.539.794s-.652 3.58-3.196 3.745c0 0-.775-1.696.657-4.539z" fill="#F7D6C4"/>
        <path d="M105.949 54.933c.148.003.165.067.176.12.016.055.025.112.036.167.017.111.03.224.03.337.003.226-.028.451-.085.671a2.754 2.754 0 0 1-.27.616c-.055.1-.125.185-.189.276-.033.044-.073.085-.107.127-.033.044-.069.088-.201.044l-.045-.039c-.065-.125-.035-.165 0-.202.03-.041.062-.08.089-.123.05-.086.113-.166.159-.255.1-.173.181-.353.244-.54a2.068 2.068 0 0 0 .102-.873c-.006-.049-.011-.097-.022-.145-.012-.048-.025-.086.086-.181h-.003z" fill="#F1B889"/>
        <path d="M106.867 51.809c.254-3.053-1.335-6.96-7.071-7.526-8.45-.833-11.006 6.149-11.176 9.34-.064 1.213 1.413.943 1.413.943s1.973-.353 3.032-3.297c.881-2.448 1.722-6.792 4.802-4.654 2.31-1.882 3.79 2.118 5.206 3.535 1.198 1.198 2.444 2.118 3.149 3.356.618-.53.596-1.131.643-1.697h.002z" fill="#003765"/>
        <path d="M102.746 54.519c.041-.875-.673-1.62-1.596-1.663-.923-.044-1.706.629-1.747 1.504-.042.874.672 1.619 1.596 1.663.923.044 1.705-.63 1.747-1.504z" fill="#fff"/>
        <path d="M101.033 55.207a.733.733 0 1 0 0-1.465.733.733 0 0 0 0 1.465z" fill="#003765"/>
        <path d="M97.784 82.447c-.132-.186-.134-.369-.129-.553v-1.65l-.005-2.204.005-2.202.01-1.101.003-.55v-.275c0-.09-.005-.184.01-.264v-.009c.005-.111.012-.224.044-.337a.765.765 0 0 1 .165-.318.603.603 0 0 1 .304-.182c.112-.027.222-.027.327-.02.017 0 .03.017.028.034 0 .014-.011.023-.024.026-.1.022-.197.05-.282.093a.475.475 0 0 0-.194.172c-.088.145-.1.336-.088.526v-.01c.025.102.023.193.026.287l.005.276.005.552.006 1.103-.016 2.203-.032 2.204-.018 1.1-.01.551c0 .184-.004.367-.137.55l-.003-.002zm1.284-6.766a.528.528 0 1 0 0-1.057.528.528 0 0 0 0 1.057zm12.412-1.557c.137.154.132.308.129.46v1.38l-.003 1.84c-.006.613-.006 1.226-.019 1.84l-.019.92-.009.46c0 .153-.002.307-.133.457-.015.016-.04.019-.055.005-.002 0-.003-.003-.005-.005-.129-.155-.127-.307-.122-.46v-.46l.003-.92c.001-.613.016-1.226.023-1.839l.041-1.84.021-.919.009-.459c0-.154 0-.306.139-.46zm-26.074 0c.14.162.14.324.14.485l.01.485.02.969.041 1.938c.008.646.022 1.292.025 1.939l.003.969v.484c.007.162.007.323-.12.487a.038.038 0 0 1-.054.006l-.006-.006c-.132-.16-.133-.322-.133-.483l-.01-.485-.018-.97c-.013-.645-.013-1.291-.02-1.938l-.002-1.938v-1.454c-.007-.161-.01-.323.125-.484l-.001-.004z" fill="#84286A"/>
        <path d="M90.262 59.172c.381 0 .69-.332.69-.742s-.309-.742-.69-.742c-.38 0-.69.333-.69.742 0 .41.31.742.69.742zm15.475 0c.381 0 .69-.332.69-.742s-.309-.742-.69-.742c-.381 0-.69.333-.69.742 0 .41.309.742.69.742z" fill="#D362AF"/>
    </g>
    <mask id="h" style="mask-type:alpha" maskUnits="userSpaceOnUse" x="120" y="39" width="37" height="37">
        <path fill="#D9D9D9" d="M120.066 39.89h36.022v36.022h-36.022z"/>
    </mask>
    <g mask="url(#h)">
        <path d="M161.574 35h-47.147v47.148h47.147V35z" fill="#8AC0FF"/>
        <path d="M142.784 63.034c-.226 1.264-.289 6.192-.137 7.176h-8.978c.152-.982.091-5.91-.137-7.176h9.252z" fill="#F7D6C4"/>
        <path d="M142.087 64.837c-4.36 3.368-8.122.15-8.122.15s1.527 2.509 4.463 2.342c2.695-.152 3.657-2.492 3.657-2.492h.002z" fill="#F1B889"/>
        <path d="M138.572 68.67h-1.138c-6.151.426-8.473 1.743-8.447 3.27h18.032c.025-1.527-2.296-2.844-8.447-3.27z" fill="#F7D6C4"/>
        <path d="M138.003 77.475c3.804 0 6.888-1.51 6.888-3.372 0-1.863-3.084-3.373-6.888-3.373-3.805 0-6.889 1.51-6.889 3.373 0 1.862 3.084 3.372 6.889 3.372z" fill="#F7D6C4"/>
        <path d="M159.031 86.09c-.946-5.71-1.068-10.686-5.243-12.932-1.758-.946-6.894-2.927-9.663-3.69-.316-.087-.393.042-.58.25-1.081 1.194-3.445 6.985-5.542 6.985-2.098 0-4.46-5.793-5.541-6.985-.187-.206-.266-.337-.58-.25-2.769.763-7.905 2.744-9.664 3.69-4.174 2.246-4.296 7.221-5.242 12.932h42.055z" fill="#B79A76"/>
        <path d="M132.226 62.597s-3.572-4.414-3.495-10.654c1.464-10.449 10.306-8.937 14.45-7.117 7.381 4.732 1.877 15.499 1.039 16.995-1.378 2.112-4.323 2.722-6.16 2.722-3.991 0-4.753-.866-5.834-1.944v-.002z" fill="#76533E"/>
        <path d="M130.58 55.207c-.642-1.474-2.57-.583-2.542.89.029 1.472.986 3.781 3.205 3.915 0 0 .641-1.81-.663-4.805z" fill="#F7D6C4"/>
        <path d="M129.37 55.874c.118.09.107.132.097.184-.007.05-.011.102-.015.154a2.757 2.757 0 0 0 .105.922c.058.199.129.395.223.579.039.096.099.184.145.276.023.047.055.088.083.134.031.042.06.083-.013.206l-.048.036c-.135.033-.17-.016-.2-.063-.033-.047-.071-.09-.1-.14-.06-.097-.126-.191-.175-.297-.025-.052-.052-.102-.075-.155l-.062-.162c-.044-.107-.072-.22-.102-.33a3.06 3.06 0 0 1-.056-1.033c.008-.058.015-.114.028-.171.008-.057.02-.121.168-.137l-.003-.003z" fill="#F1B889"/>
        <path d="M130.19 50.44c-1.05 2.297-.046 6.422.559 8.795.822 3.217 1.478 3.984 2.364 5.07 2.596 3.184 8.637 2.826 10.79-1.845.488-1.058.89-2.046 1.141-3.843.73-5.2.167-12.132-3.467-12.916-6.655-1.438-9.277.117-11.389 4.738l.002.002z" fill="#F7D6C4"/>
        <path d="M137.73 54.669l.628 3.839c-.008.13-.384.225-.557.262a3.16 3.16 0 0 1-1.092.043c-.109-.05-.069-.225-.058-.31.097-.778.592-3.327.721-3.813.063-.317.255-.614.36-.02l-.002-.002z" fill="#F1B889"/>
        <path d="M138.285 58.6c.265-.216-.645-.674-.896-.634-.326.052-.852.748-.681.845.363.205 1.127.058 1.575-.21h.002z" fill="#ED9535"/>
        <path d="M141.385 46.487c-2.385 3.24-10.575 5.835-10.694 4.691-.007-.061-.212-.35-.77.813-.319.649-.161 1.77-.06 2.593.019.15-.167.237-.272.128-1.208-1.24-2.357-4.524-.93-6.052-.212-1.845 2.444-5.401 5.934-4.823 3.929-1.922 9.338-.709 10.184 1.51 0 0 1.898.046 2.591 4.459.609 3.861-.645 7.57-1.722 7.59 0 0 .434-2.097-.831-5.434-.992-2.616-3.593-2.777-3.43-5.477v.002z" fill="#76533E"/>
        <path d="M135.088 52.171l-.986.082c-.316.026-.624.063-.926.11a7.735 7.735 0 0 0-.899.191c-.307.073-.594.195-.935.297a2.1 2.1 0 0 1 .748-.727c.305-.18.646-.302.995-.352a3.18 3.18 0 0 1 1.043.012c.34.066.674.18.962.387h-.002zm3.905-.343c.258-.242.575-.397.904-.507.33-.107.682-.156 1.034-.148.352.003.706.082 1.031.22.328.13.616.357.834.626-.35-.058-.652-.142-.965-.175a7.518 7.518 0 0 0-.916-.075 13.313 13.313 0 0 0-.932.01l-.99.048v.002z" fill="#76533E"/>
        <path d="M135.453 55.787c.02-.87-.707-1.592-1.624-1.613-.917-.022-1.677.665-1.698 1.534-.021.87.706 1.592 1.623 1.614.918.022 1.678-.665 1.699-1.535zm7.31.003c.021-.87-.706-1.592-1.623-1.614-.917-.022-1.678.665-1.698 1.535-.021.87.706 1.592 1.623 1.614.917.021 1.677-.666 1.698-1.535z" fill="#fff"/>
        <path d="M137.444 61.873c-.236 0-.448-.026-.617-.06a.287.287 0 0 1-.22-.338.286.286 0 0 1 .338-.22c.073.016 1.762.349 2.425-1.033a.286.286 0 0 1 .514.247c-.534 1.111-1.625 1.404-2.44 1.404z" fill="#F1A85D"/>
        <path d="M144.368 55.332c.465-1.539 2.483-.879 2.627.587.145 1.467-.537 3.871-2.726 4.261 0 0-.847-1.724.099-4.848z" fill="#F7D6C4"/>
        <path d="M145.645 55.852c.149 0 .168.061.182.116.019.055.033.112.049.168a3.017 3.017 0 0 1 .064 1.032c-.017.114-.033.23-.062.342l-.043.168c-.017.055-.038.109-.058.164-.036.11-.09.212-.138.316-.024.051-.055.1-.084.15-.025.05-.053.103-.191.087l-.052-.03c-.087-.113-.063-.157-.038-.204.022-.047.049-.093.066-.142.036-.099.083-.191.112-.292a3.41 3.41 0 0 0 .154-.6 2.85 2.85 0 0 0-.002-.928c-.011-.05-.02-.102-.034-.15-.016-.05-.033-.092.075-.194v-.003z" fill="#F1B889"/>
        <path d="M133.847 56.545a.753.753 0 1 0-.001-1.505.753.753 0 0 0 .001 1.505zm7.21-.025a.753.753 0 1 0-.001-1.505.753.753 0 0 0 .001 1.505z" fill="#003765"/>
    </g>
</svg>