<svg width="330" height="150" fill="none"
    xmlns="http://www.w3.org/2000/svg">
    <path fillRule="evenodd" clipRule="evenodd" d="M139.334 65.085l-23.9 13.798a.6.6 0 0 0-.22.82l22.5 38.971a.6.6 0 0 0 .82.219l22.049-12.73a5.41 5.41 0 0 1-.468-4.03h-14.181a6.6 6.6 0 0 1-6.6-6.6V81.28l-12.601 7.275a.6.6 0 0 1-.819-.22l-2.7-4.676a.6.6 0 0 1 .219-.82l15.901-9.18v-8.573zm5.866 12.807l.499-.288a.6.6 0 0 0 .22-.82l-.719-1.244v-9.892c.032.05.063.1.093.153l17.59 30.466h-16.949a.734.734 0 0 1-.734-.734v-17.64zm42.924-13.812a.6.6 0 0 0-.819.22l-22.5 38.971a.6.6 0 0 0 .219.82l24.942 14.4a3.6 3.6 0 0 0 4.917-1.318l19.5-33.775a3.599 3.599 0 0 0-1.317-4.917l-24.942-14.4zm.575 8.906a.6.6 0 0 0-.82.22l-2.7 4.676a.6.6 0 0 0 .22.82l18.966 10.95a.6.6 0 0 0 .819-.22l2.7-4.677a.6.6 0 0 0-.22-.82l-18.965-10.95z" fill="#00C4CC"/>
    <path fillRule="evenodd" clipRule="evenodd" d="M145.2 40.533c0-.405.328-.733.733-.733h35.2a4.4 4.4 0 0 1 4.4 4.4v15.506a5.375 5.375 0 0 0-2.388 2.192l-19.843 34.368h-17.369a.733.733 0 0 1-.733-.733v-55zm40.333 26.836l-16.684 28.897h12.284a4.4 4.4 0 0 0 4.4-4.4V78.78l-.134-.078a.6.6 0 0 1-.22-.82l.354-.612v-9.9zm-34.283-17.76c0-.406.328-.734.733-.734h26.767c.405 0 .733.328.733.733v6.6a.733.733 0 0 1-.733.733h-26.767a.733.733 0 0 1-.733-.733v-6.6z" fill="#00C4CC"/>
</svg>