<svg width="330" height="150" fill="none"
    xmlns="http://www.w3.org/2000/svg">
    <path d="M202.156 48.832c-.127-.143-.317-.229-.565-.229l-13.747-.003c-.629 0-.953.683-.683 1.207 1.391 2.715 2.779 5.436 4.16 8.161h-8.676c-1.318-2.588-2.642-5.183-3.963-7.774-.197-.397-.397-.8-.604-1.19a.794.794 0 0 0-.682-.404h-8.162c-.629 0-.953.683-.683 1.207 1.391 2.715 2.779 5.436 4.161 8.161h-7.883c-1.327-2.588-2.642-5.183-3.963-7.774-.197-.397-.403-.8-.603-1.19a.794.794 0 0 0-.683-.404h-8.956c-.628 0-.952.683-.682 1.207 1.39 2.715 2.778 5.436 4.16 8.161h-8.676c-1.318-2.588-2.643-5.183-3.964-7.774-.197-.397-.403-.8-.603-1.19a.794.794 0 0 0-.683-.404h-4.738c-.683 0-1.359.006-2.039.006a5.858 5.858 0 0 0-3.604 1.239c-1.474 1.153-2.195 2.893-2.195 4.716v43.15c0 .747-.015 1.487.159 2.224.604 2.556 2.979 4.366 5.583 4.382 1.232.007 2.461.016 3.69.016h59.379c1.499 0 2.89-.451 4.04-1.445 1.327-1.143 1.943-2.82 1.943-4.535l.004-48.96a.792.792 0 0 0-.242-.562zm-28.682 33.98c-.159.101-.318.206-.47.31-1.88 1.224-3.754 2.42-5.637 3.647-2.271 1.467-4.535 2.969-6.802 4.398-.588.397-1.182.788-1.772 1.169-.293.19-.61.343-.96.397-.047.006-.095.016-.152.025a1.96 1.96 0 0 1-.533-.032c-.874-.18-1.525-.953-1.614-1.858-.006-.038 0-.088 0-.133 0-.032.007-.057.007-.08l.006-14.703c0-1.508-.057-3.023-.006-4.535.006-.228.047-.438.111-.635.047-.127.101-.254.165-.365.016-.032.032-.057.048-.089.069-.111.152-.216.247-.302a2.036 2.036 0 0 1 1.28-.61 1.9 1.9 0 0 1 .413 0c.317.032.641.144.946.334.546.35 1.096.699 1.645 1.054 1.118.724 2.239 1.455 3.36 2.166 1.118.794 2.239 1.468 3.36 2.192 1.937 1.254 3.874 2.515 5.802 3.772.349.222.683.451.959.724l.057.057c.07.07.134.16.197.239.048.063.089.127.121.197.038.07.07.142.095.215.016.048.038.102.057.16.016.056.026.11.038.164.007.058.016.121.026.181.06.813-.353 1.503-.994 1.94z" fill="#00C4CC"/>
</svg>