<svg width="172" height="31" xmlns="http://www.w3.org/2000/svg">
    <path
        d="M113.389 9.587a5.875 5.875 0 0 0-1.03-.08c-.837 0-1.491.08-2.244.508-.682.388-1.22.82-1.665 1.62l-.116-1.311a.534.534 0 0 0-.534-.493h-3.749a.534.534 0 0 0-.535.533V26.85c0 .294.24.533.535.533h4.02a.534.534 0 0 0 .535-.533v-9.933c0-.829.575-1.867 1.232-2.344a4.156 4.156 0 0 1 2.179-.815c.252-.022.648-.005 1.183.044a.535.535 0 0 0 .586-.523l.053-3.159a.538.538 0 0 0-.45-.533zm12.152 13.935a8.707 8.707 0 0 1-.779.032c-.653 0-1.115-.124-1.387-.373-.272-.248-.408-.719-.408-1.41v-7.965h2.418a.534.534 0 0 0 .535-.533V10.04a.534.534 0 0 0-.535-.532h-2.418v-3.49a.534.534 0 0 0-.535-.533h-4.02a.534.534 0 0 0-.536.533v3.49h-1.879a.534.534 0 0 0-.535.532v3.234c0 .294.24.533.535.533h1.88v8.58c0 1.839.454 3.185 1.362 4.04.908.854 2.216 1.28 3.924 1.28.937 0 1.8-.111 2.592-.336a.528.528 0 0 0 .377-.51v-2.81a.535.535 0 0 0-.591-.528zm-31.178-.057c-.528.298-1.14.446-1.836.446-.62 0-1.117-.164-1.493-.494-.375-.33-.563-.76-.563-1.29 0-.757.261-1.381.783-1.873.523-.493 1.327-.738 2.415-.738h1.828v2.87c-.229.422-.607.782-1.134 1.08zm2.774-13.252c-1.083-.47-2.326-.706-3.729-.706-1.512 0-2.847.25-4.005.746-1.16.498-2.05 1.18-2.676 2.044a4.806 4.806 0 0 0-.906 2.301.534.534 0 0 0 .536.586h4.028c.262 0 .47-.194.515-.45.074-.423.26-.762.558-1.018.397-.34.955-.51 1.673-.51.805 0 1.4.219 1.786.656.386.438.58 1.052.58 1.842v.957h-1.91c-2.719 0-4.767.5-6.143 1.5-1.376 1-2.063 2.425-2.063 4.274 0 1.006.266 1.912.799 2.717.533.806 1.256 1.433 2.17 1.882.914.448 1.92.673 3.019.673 1.849 0 3.306-.627 4.372-1.882v1.025c0 .294.24.533.536.533h3.79a.533.533 0 0 0 .536-.532V15.736c0-1.352-.307-2.492-.921-3.423-.615-.93-1.463-1.63-2.545-2.1zm68.148 3.053c-.61.537-1.496.805-2.66.805h-3.785V7.99h3.785c1.175 0 2.064.268 2.668.804.604.536.906 1.287.906 2.251 0 .945-.305 1.685-.914 2.221zm6.656 13.342l-4.644-9.04c1.359-.616 2.398-1.455 3.116-2.514.718-1.06 1.077-2.444 1.077-4.154 0-1.535-.356-2.836-1.069-3.901-.712-1.065-1.735-1.871-3.068-2.417-1.332-.546-2.912-.82-4.74-.82h-8.553a.534.534 0 0 0-.536.533V26.85c0 .294.24.533.536.533h4.232a.534.534 0 0 0 .536-.533v-8.473h3.273l4.41 8.713c.092.18.276.293.478.293h4.475c.4 0 .659-.42.477-.775zM149.136 3.736h-4.22a.535.535 0 0 0-.537.533v9.802h-9.017V4.269a.535.535 0 0 0-.536-.533h-4.237a.535.535 0 0 0-.536.533v22.58c0 .295.24.534.536.534h4.237a.535.535 0 0 0 .536-.533v-8.54h9.017v8.54c0 .294.24.533.537.533h4.22a.535.535 0 0 0 .536-.533V4.27a.535.535 0 0 0-.536-.534zM13.29 17.996a1.28 1.28 0 0 0 1.628-.782 1.27 1.27 0 0 0-.786-1.618 3.527 3.527 0 0 1-2.375-3.326c0-1.942 1.589-3.521 3.542-3.521 1.507 0 2.852.95 3.347 2.364a1.28 1.28 0 0 0 1.627.783 1.27 1.27 0 0 0 .788-1.618 6.102 6.102 0 0 0-5.762-4.071c-3.363 0-6.1 2.72-6.1 6.063a6.073 6.073 0 0 0 4.091 5.727zm63.923-8.489c-1.153 0-2.17.23-3.051.69a5.904 5.904 0 0 0-2.187 1.97c-.424-.897-1.028-1.565-1.81-2.003-.784-.438-1.72-.657-2.807-.657-1.077 0-2.04.2-2.888.6a5.93 5.93 0 0 0-2.154 1.72l-.123-1.506a.534.534 0 0 0-.534-.49h-3.751a.534.534 0 0 0-.536.533V26.85c0 .294.24.533.536.533h4.02a.534.534 0 0 0 .535-.533V15.87a3.083 3.083 0 0 1 1.093-1.126c.446-.265.968-.398 1.566-.398.544 0 .99.073 1.338.219.348.146.615.42.8.82.185.4.278.962.278 1.686v9.78c0 .293.24.532.535.532h4.02a.534.534 0 0 0 .535-.533V16.066c.261-.541.614-.963 1.06-1.266.447-.302.985-.454 1.616-.454.544 0 .987.073 1.33.219.343.146.606.417.791.811.185.395.277.949.277 1.663v9.811c0 .294.24.533.536.533h4.036a.534.534 0 0 0 .535-.533V16.287c0-2.4-.487-4.13-1.46-5.19-.973-1.06-2.352-1.59-4.136-1.59zm-49.174 11.17c0 3.975-3.241 7.197-7.239 7.197H9.792c-3.998 0-7.238-3.222-7.238-7.196V9.735c0-3.974 3.24-7.196 7.238-7.196H20.8c3.998 0 7.239 3.222 7.239 7.196v10.943zm-.315-17.826A9.76 9.76 0 0 0 24.612.766 9.782 9.782 0 0 0 20.799 0H9.792C8.472 0 7.19.258 5.98.766a9.758 9.758 0 0 0-3.112 2.085A9.697 9.697 0 0 0 0 9.735v10.943a9.695 9.695 0 0 0 2.868 6.884 9.756 9.756 0 0 0 3.112 2.084 9.781 9.781 0 0 0 3.812.767H20.8a9.774 9.774 0 0 0 3.813-.767 9.758 9.758 0 0 0 3.111-2.085 9.697 9.697 0 0 0 2.868-6.883V9.735a9.633 9.633 0 0 0-.77-3.79 9.699 9.699 0 0 0-2.098-3.094zm-10.42 9.565a1.28 1.28 0 0 0-1.629.782 1.27 1.27 0 0 0 .786 1.619 3.527 3.527 0 0 1 2.376 3.326c0 1.941-1.59 3.521-3.542 3.521a3.544 3.544 0 0 1-3.347-2.364 1.28 1.28 0 0 0-1.628-.783 1.27 1.27 0 0 0-.787 1.617 6.102 6.102 0 0 0 5.762 4.072c3.363 0 6.099-2.72 6.099-6.063a6.072 6.072 0 0 0-4.09-5.727zm32.665 1.27l-3.468-1.37c-2.051-.799-3.533-1.376-3.533-2.79 0-1.408 1.182-2.248 3.163-2.248 1.668 0 3.098.465 4.678 1.54.23.156.543.104.715-.112l2.129-2.663a.535.535 0 0 0-.074-.74c-1.99-1.72-4.723-2.732-7.448-2.732-5.036 0-8.834 3.133-8.834 7.287 0 4.202 3.446 6.017 4.927 6.602l3.604 1.508c1.926.801 3.198 1.33 3.198 2.786 0 .877-.446 2.347-3.43 2.347-1.744 0-3.845-.805-5.62-2.132a.53.53 0 0 0-.729.08l-2.482 3.004a.527.527 0 0 0 .065.743c2.374 1.943 5.48 3.046 8.632 3.046 6.39 0 9.301-3.915 9.301-7.553 0-3.197-1.523-5.295-4.794-6.603z"
        fill="#00c4cc" fillRule="evenodd" />
</svg>