<svg width="26" height="26" fill="none" xmlns="http://www.w3.org/2000/svg"><g clip-path="url(#clip0_13088_62797)" fill="#00C4CC"><path d="M15.243 5.53c-1.058-.728-2.685-.658-3.631.155-.946.812-.857 2.065.2 2.794 1.059.73 2.693.66 3.628-.153.934-.813.861-2.066-.197-2.795zM5.505 9.447l5.752 3.959a.784.784 0 0 0 .913-.033c1.184-1.018 1.072-2.578-.252-3.493L10 8.559c-1.324-.911-3.356-.825-4.54.193a.422.422 0 0 0 .045.694z"/><path d="M1.76 10.626l8.787 6.472a2.34 2.34 0 0 0 2.79 0l1.568-1.164v-2.308l-2.69 1.982a.469.469 0 0 1-.557 0L2.87 9.126a.466.466 0 0 1 0-.747L11.658 1.9a.468.468 0 0 1 .556 0l8.789 6.479a.466.466 0 0 1 0 .748l-2.619 1.93 1.46 1.232 2.263-1.667a2.33 2.33 0 0 0 .697-2.921 2.332 2.332 0 0 0-.697-.824L13.337.4a2.34 2.34 0 0 0-2.779 0L1.761 6.88a2.33 2.33 0 0 0-.948 1.873 2.323 2.323 0 0 0 .948 1.873zm18.941 1.728a.932.932 0 0 0-.18.51l1.511 1.276.449.38a1.292 1.292 0 0 0 .514-.992c0-.64-.467-.995-.988-1.37a.936.936 0 0 0-1.306.196z"/><path d="M3.171 12.354a.934.934 0 0 0-1.305-.195c-.51.375-.988.729-.988 1.369s.479.992.988 1.367l8.68 6.395a2.338 2.338 0 0 0 2.792 0l1.588-1.165v-2.307l-2.712 1.981a.468.468 0 0 1-.556 0l-8.526-6.287a.93.93 0 0 0 .04-1.158z"/><path d="M14.923 21.988l-2.709 1.999a.468.468 0 0 1-.556 0l-8.526-6.284a.93.93 0 0 0-.626-1.53.936.936 0 0 0-.64.177c-.51.375-.988.73-.988 1.37 0 .64.479.992.988 1.367l8.68 6.395a2.338 2.338 0 0 0 2.792 0l2.176-1.607a1.862 1.862 0 0 1-.577-1.344l-.014-.543zm10.092-3.493l-7.532-6.367c-.42-.356-1.207 0-1.205.56l.049 9.843c0 .503.684.685 1.13.298l2.144-1.847 1.787 3.82a1.167 1.167 0 0 0 1.109.671 1.17 1.17 0 0 0 1.047-.763 1.16 1.16 0 0 0-.038-.891l-1.787-3.822 2.803-.45c.577-.092.878-.73.493-1.052z"/></g><defs><clipPath id="clip0_13088_62797"><path fill="#fff" d="M0 0h26v26H0z"/></clipPath></defs></svg>