<svg width="32" height="32" fill="none" xmlns="http://www.w3.org/2000/svg"><path d="M15.506 25.506c-.532.637-1.48.637-2.069 0l-4-4c-.58-.532-.58-1.48 0-2.069.589-.58 1.537-.58 2.069 0L14.5 22.38l5.937-5.943c.589-.58 1.537-.58 2.069 0 .637.589.637 1.537 0 2.069l-7 7zM10 0c.831 0 1.5.671 1.5 1.5V4h9V1.5c0-.829.669-1.5 1.5-1.5s1.5.671 1.5 1.5V4H26c2.206 0 4 1.791 4 4v20c0 2.206-1.794 4-4 4H6c-2.209 0-4-1.794-4-4V8a4 4 0 0 1 4-4h2.5V1.5C8.5.671 9.169 0 10 0zm17 12H5v16c0 .551.449 1 1 1h20c.549 0 1-.449 1-1V12z" fill="#00C4CC"/></svg>