<svg width="32" height="32" fill="none" xmlns="http://www.w3.org/2000/svg"><path d="M24.943 28c0 .491-.392 1-.943 1H8c-.551 0-1-.449-1-1v-2.306H4V28a4 4 0 0 0 4 4h16c2.2 0 4-1.8 4-4v-2.306h-3.057V28zM26.83 5.837l-4.665-4.666A4.026 4.026 0 0 0 19.337 0H8a4 4 0 0 0-4 4v7.797h3V4.006c0-.552.449-1 1-1h10v4.991c0 1.106.894 2 2 2h4.943v1.797H28V8.663c0-1.057-.42-2.077-1.169-2.826zM9.88 15.646c.329 0 .557.294.691.854.103.391.172.686.623.629l.703-.083c.534-.069.523-.392.466-.769-.249-1.637-.943-2.631-2.509-2.631-2.123 0-2.825 2.337-2.825 5.08 0 3.231.714 5.22 2.78 5.22 1.408 0 2.225-.909 2.6-2.729.08-.363.102-.7-.432-.783l-.828-.125c-.432-.072-.432.237-.523.628-.172.672-.42 1.034-.76 1.034-.615 0-.897-.642-.897-3.245.002-2.297.311-3.08.911-3.08zm6.357 6.423c-.386 0-.623-.209-.771-.575-.149-.391-.172-.671-.68-.56l-.68.155c-.535.125-.489.462-.397.811.34 1.4 1.1 2.043 2.451 2.043 1.6 0 2.631-1.034 2.631-2.854 0-3.36-3.245-3.12-3.245-4.898 0-.42.237-.685.611-.685.294 0 .5.183.646.448.203.377.248.643.714.532l.612-.155c.522-.125.465-.477.351-.811-.363-1.174-1.054-1.874-2.36-1.874-1.486 0-2.406 1.063-2.406 2.631 0 3.372 3.257 3.12 3.257 4.983.003.543-.314.809-.734.809zm5.823 1.748h1.066c.34 0 .611-.154.714-.686l1.646-8.677c.114-.614-.149-.685-.443-.685h-.986c-.328 0-.488.154-.568.7l-.898 5.948h-.022l-.818-5.948c-.08-.546-.225-.7-.557-.7h-1.011c-.294 0-.569.071-.454.685l1.622 8.677c.106.52.369.686.709.686z" fill="#00C4CC"/></svg>