<svg width="12" height="12" fill="none"
    xmlns="http://www.w3.org/2000/svg">
    <path opacity=".5" d="M10.125 7.5h-.75A.375.375 0 0 0 9 7.875V10.5H1.5V3h3.375a.375.375 0 0 0 .375-.375v-.75a.375.375 0 0 0-.375-.375h-3.75A1.125 1.125 0 0 0 0 2.625v8.25A1.125 1.125 0 0 0 1.125 12h8.25a1.125 1.125 0 0 0 1.125-1.125v-3a.375.375 0 0 0-.375-.375zM11.438 0h-3a.563.563 0 0 0-.399.96l.837.838-5.712 5.71a.563.563 0 0 0 0 .798l.531.53a.562.562 0 0 0 .797 0l5.71-5.711.837.836A.563.563 0 0 0 12 3.563v-3A.563.563 0 0 0 11.437 0z" fill="#888"/>
</svg>