<svg width="32" height="32" fill="none" xmlns="http://www.w3.org/2000/svg"><path d="M24.857 9.143H30c1.103 0 2-.897 2-2V2c0-1.103-.897-2-2-2h-5.143c-1.103 0-2 .897-2 2v1.143H17.43c-1.103 0-2 .897-2 2v9.428h-4.572v-2c0-1.102-.897-2-2-2H2c-1.103 0-2 .898-2 2v6.858c0 1.102.897 2 2 2h6.857c1.103 0 2-.898 2-2v-2h4.572v9.142c0 1.103.897 2 2 2h5.428v1.143c0 1.103.897 2 2 2H30c1.103 0 2-.897 2-2v-5.143c0-1.102-.897-2-2-2h-5.143c-1.103 0-2 .898-2 2v1.143h-4.571V17.43h4.571v1.142c0 1.103.897 2 2 2H30c1.103 0 2-.897 2-2V13.43c0-1.103-.897-2-2-2h-5.143c-1.103 0-2 .897-2 2v1.142h-4.571V6h4.571v1.143c0 1.103.897 2 2 2zm.857-6.286h3.429v3.429h-3.429V2.857zM8 18.571H2.857V13.43H8v5.142zm17.714 6.858h3.429v3.428h-3.429V25.43zm0-11.143h3.429v3.428h-3.429v-3.428z" fill="#00C4CC"/></svg>