<svg width="32" height="32" fill="none" xmlns="http://www.w3.org/2000/svg"><path d="M22.514 17.503h-4a1.143 1.143 0 1 1 0-2.286h4a1.143 1.143 0 1 1 0 2.286zm0 7.4h-4a1.143 1.143 0 1 1 0-2.286h4a1.143 1.143 0 1 1 0 2.286zM11.077 26.52a1.14 1.14 0 0 1-.808-.334L8.65 24.569a1.145 1.145 0 0 1 0-1.618 1.145 1.145 0 0 1 1.618 0l.808.809 2.829-2.829a1.145 1.145 0 0 1 1.617 0 1.145 1.145 0 0 1 0 1.618l-3.637 3.634a1.145 1.145 0 0 1-.809.337zm0-8a1.14 1.14 0 0 1-.808-.334L8.65 16.569a1.145 1.145 0 0 1 0-1.618 1.145 1.145 0 0 1 1.618 0l.808.809 2.829-2.829a1.145 1.145 0 0 1 1.617 0 1.145 1.145 0 0 1 0 1.618l-3.637 3.634a1.145 1.145 0 0 1-.809.337z" fill="#00C4CC"/><path d="M24 4h-3.1c-.52-2.283-2.48-4-4.9-4a5 5 0 0 0-4.9 4H8a4 4 0 0 0-4 4v20a4 4 0 0 0 4 4h16a4 4 0 0 0 4-4V8c0-2.209-1.794-4-4-4zm-8-1c.826 0 1.5.674 1.5 1.5S16.826 6 16 6s-1.5-.674-1.5-1.5S15.174 3 16 3zm9 25c0 .551-.449 1-1 1H8c-.551 0-1-.449-1-1V8c0-.551.449-1 1-1h1.14c-.083.32-.14.649-.14 1v1c0 .549.449 1 1 1h12c.551 0 1-.449 1-1V8c0-.349-.057-.68-.143-1H24c.551 0 1 .449 1 1v20z" fill="#00C4CC"/></svg>