<svg width="32" height="32" fill="none" xmlns="http://www.w3.org/2000/svg"><path d="M31.427 8.434L30.213 7.22a1.71 1.71 0 0 0-2.414 0l-4.128 4.128-2.94-2.937 4.126-4.125a1.71 1.71 0 0 0 0-2.414L23.484.5a1.71 1.71 0 0 0-2.414 0l-4.125 4.125-1.64-1.64a1.982 1.982 0 0 0-1.408-.583c-.51 0-1.018.193-1.408.583l-3.846 3.85c-3.582 3.582-3.958 9.157-1.126 13.16L.665 26.846a2.276 2.276 0 0 0 0 3.215l1.274 1.274a2.275 2.275 0 0 0 3.215 0l6.852-6.852a10.235 10.235 0 0 0 5.91 1.877c2.625 0 5.25-1.001 7.25-3.003l3.85-3.85a1.993 1.993 0 0 0 0-2.814l-1.72-1.72 4.128-4.128a1.704 1.704 0 0 0 .003-2.411zm-8.27 12.916a7.366 7.366 0 0 1-5.24 2.17 7.364 7.364 0 0 1-5.24-2.17l-2.024-2.024c-2.889-2.889-2.889-7.591 0-10.48L13.9 5.6l12.504 12.504-3.247 3.247z" fill="#00C4CC"/></svg>