<svg width="32" height="32" fill="none" xmlns="http://www.w3.org/2000/svg"><path d="M11.556 16.444a3.555 3.555 0 0 0 3.555-3.555 3.555 3.555 0 0 0-3.555-3.556 3.555 3.555 0 1 0 0 7.111zm14.222-1.333h-5.334c-.734 0-1.333.599-1.333 1.333 0 .735.599 1.334 1.333 1.334h5.334a1.335 1.335 0 0 0 .943-2.276c-.25-.25-.59-.39-.943-.39zm-12.445 3.111H9.778a4.442 4.442 0 0 0-4.445 4.445c0 .489.4.889.89.889h10.666a.888.888 0 0 0 .889-.89 4.442 4.442 0 0 0-4.445-4.444zm12.445-7.555h-5.334c-.734 0-1.333.598-1.333 1.333s.599 1.333 1.333 1.333h5.334a1.335 1.335 0 0 0 .943-2.276c-.25-.25-.59-.39-.943-.39zM28.444 4H3.556A3.555 3.555 0 0 0 0 7.556v17.777a3.555 3.555 0 0 0 3.556 3.556h24.888A3.555 3.555 0 0 0 32 25.333V7.556A3.556 3.556 0 0 0 28.444 4zm.89 21.333c0 .49-.4.89-.89.89H3.556a.892.892 0 0 1-.89-.89V7.556c0-.49.4-.89.89-.89h24.888c.49 0 .89.4.89.89v17.777z" fill="#00C4CC"/></svg>