<svg width="32" height="32" fill="none" xmlns="http://www.w3.org/2000/svg"><path d="M14.631 10.98H6.723a1.43 1.43 0 0 1 0-2.857h7.908a1.43 1.43 0 0 1 0 2.857zm0 5.303H6.723a1.43 1.43 0 0 1 0-2.857h7.908a1.43 1.43 0 0 1 0 2.857z" fill="#00C4CC"/><path d="M16.657 27.806H3.714a.86.86 0 0 1-.857-.857V5.71a.86.86 0 0 1 .857-.857H17.43a.86.86 0 0 1 .857.857v9.255a9.425 9.425 0 0 1 2.857-1.623V5.714A3.718 3.718 0 0 0 17.429 2H3.714A3.718 3.718 0 0 0 0 5.714V26.95a3.718 3.718 0 0 0 3.714 3.714H17.43a3.69 3.69 0 0 0 1.768-.449 9.529 9.529 0 0 1-2.54-2.408z" fill="#00C4CC"/><path d="M24.286 14.514c-4.26 0-7.715 3.466-7.715 7.743S20.026 30 24.286 30 32 26.534 32 22.257s-3.454-7.743-7.714-7.743zm3.691 6.58l-3.968 3.98c-.3.363-.84.363-1.172 0L20.571 22.8c-.328-.303-.328-.843 0-1.177.335-.332.872-.332 1.172 0l1.697 1.674 3.366-3.38c.334-.331.871-.331 1.171 0 .36.334.36.874 0 1.177z" fill="#00C4CC"/></svg>