<svg width="32" height="32" fill="none" xmlns="http://www.w3.org/2000/svg"><path d="M30.085 10.278L26.959 7.82a3.655 3.655 0 0 0-3.604-3.084h-.323L17.998.783A3.648 3.648 0 0 0 13.487.78L8.44 4.735h-.284A3.657 3.657 0 0 0 4.56 7.779l-3.156 2.473A3.63 3.63 0 0 0 0 13.128v15.218A3.658 3.658 0 0 0 3.654 32h24.174a3.658 3.658 0 0 0 3.654-3.654V13.153c0-1.13-.509-2.178-1.397-2.875zM15.218 2.992a.835.835 0 0 1 .52-.18c.183 0 .368.059.52.18l2.22 1.743-5.483-.003 2.223-1.74zM7.311 8.389c0-.464.38-.844.843-.844l15.199.003c.463 0 .843.38.843.844l-.003 9.273-7.957 5.773a.79.79 0 0 1-.228.115c-.003.003-.008.003-.011.006a.866.866 0 0 1-.259.04l-.045-.003a.849.849 0 0 1-.118-.015h-.003c-.036-.008-.076-.016-.112-.03-.009-.003-.017-.009-.026-.012-.028-.011-.058-.022-.084-.036a.859.859 0 0 1-.107-.068l-7.94-5.762.008-9.284zm-4.5 4.739c0-.262.118-.503.323-.664l1.366-1.07-.003 4.244-1.686-1.22v-1.29zm25.86 15.218c0 .464-.38.843-.843.843H3.654a.846.846 0 0 1-.843-.843V17.889l10.785 7.823a3.663 3.663 0 0 0 2.145.7c.75 0 1.504-.233 2.145-.697l10.785-7.826v10.457zm0-13.928l-1.664 1.209v-4.191l1.34 1.054c.206.16.324.402.324.663v1.265z" fill="#00C4CC"/><path d="M10.98 12.903h9.25a1.124 1.124 0 1 0 0-2.249h-9.25a1.124 1.124 0 1 0 0 2.249zm10.374 2.766c0-.621-.503-1.125-1.124-1.125h-9.25a1.124 1.124 0 1 0 0 2.25h9.25c.621 0 1.124-.504 1.124-1.125z" fill="#00C4CC"/></svg>