<svg width="32" height="32" fill="none" xmlns="http://www.w3.org/2000/svg"><path fill-rule="evenodd" clip-rule="evenodd" d="M16 1.6a2.894 2.894 0 0 1 2.894 2.894v8.682h8.682a2.894 2.894 0 0 1 2.894 2.894v11.575a2.894 2.894 0 0 1-2.894 2.894H16a2.894 2.894 0 0 1-2.894-2.894v-8.681H4.424A2.894 2.894 0 0 1 1.53 16.07V4.494A2.894 2.894 0 0 1 4.424 1.6H16zm11.576 13.023H16c-.798 0-1.447.649-1.447 1.447v11.575c0 .798.65 1.447 1.447 1.447h11.576a1.45 1.45 0 0 0 1.447-1.447V16.07a1.45 1.45 0 0 0-1.447-1.447zm-4.547 1.464l3.754 11.53h-2.327l-.76-2.62-3.68.01-.722 2.61h-2.25l3.728-11.525 2.257-.005zm-1.138 2.188h-.06a78.458 78.458 0 0 1-.899 3.436l-.047.164-.33 1.205h2.641l-.33-1.205c-.345-1.145-.645-2.41-.975-3.6zM8.118 4.052c.043.231.058.434.058.651 0 .405-.058 1.056-.116 1.577-1.085.015-1.88.044-2.807-.058.03.405.03.781.072 1.1.015.246.102.318.261.332.164.027.379.029.755.03h.094l.47.003h.046c.232 0 .537-.004.95-.018-.03.55-.058 1.186-.073 1.808-1.78.883-3.385 2.648-3.385 4.5 0 1.128.622 1.793 1.606 1.793.738 0 1.49-.332 2.517-1.04.073.216.145.39.246.563.087.145.145.145.29.072.202-.087.535-.26.867-.506.145-.101.203-.173.116-.362-.101-.231-.188-.39-.26-.65 1.042-1.056 1.895-2.2 2.734-3.79.97.245 1.794.94 1.794 2.097 0 1.041-.463 1.663-1.157 2.17-.535.376-1.65.839-2.69 1.056.462.39.751.694.852.897.16.318.319.361.637.275a8.73 8.73 0 0 0 1.111-.381v-.101a2.894 2.894 0 0 1 2.799-2.893h.041l.01-.055c.036-.19.057-.385.06-.589l.001-.06c0-1.81-1.1-3.04-2.966-3.531.072-.13.116-.217.188-.29.058-.057.087-.115.087-.173 0-.087-.087-.203-.26-.318-.203-.145-.767-.376-1.288-.535-.014.404-.159.824-.246 1.055-.709.015-1.649.131-2.213.319.014-.506.043-.854.101-1.461 1.316-.116 2.199-.217 4.109-.608.158-.029.303-.101.303-.29 0-.317-.072-.68-.145-.983-.028-.13-.072-.188-.245-.145a27.8 27.8 0 0 1-3.762.608c.043-.246.072-.463.116-.723.03-.16.073-.362.202-.521.058-.073.073-.13.073-.232 0-.115-.087-.202-.26-.26-.362-.13-.854-.231-1.693-.333zm-.268 6.8c.029.842.145 1.627.29 2.497-.739.581-1.274.842-1.68.842-.26 0-.477-.203-.477-.551 0-.944.752-1.99 1.867-2.788zm3.275-.904c-.41.8-1.098 1.8-1.698 2.47a15.128 15.128 0 0 1-.175-2.141 7.012 7.012 0 0 1 1.873-.33z" fill="#00C4CC"/></svg>