<svg width="16" height="15" viewBox="0 0 16 15"
    xmlns="http://www.w3.org/2000/svg">
    <path d="M15.111 11.27c-.491 0-.889.36-.889.803v.407a.91.91 0 01-.908.912H2.686a.91.91 0 01-.908-.912v-.407c0-.444-.398-.804-.889-.804S0 11.63 0 12.073v1.319C0 14.28.796 15 1.778 15h12.444c.982 0 1.778-.72 1.778-1.608v-1.319c0-.444-.398-.804-.889-.804"></path>
    <path d="M13.028 5.582a.89.89 0 00-1.262 0L9.055 8.308V1.06C9.055.474 8.582 0 8 0S6.946.474 6.946 1.06v7.248L4.234 5.582a.89.89 0 00-1.262 0 .9.9 0 000 1.268l4.432 4.454a.84.84 0 001.192 0l4.432-4.454a.9.9 0 000-1.268"></path>
</svg>