<svg width="32" height="32" fill="none" xmlns="http://www.w3.org/2000/svg"><path d="M16 18h-4c-2.763 0-5 2.237-5 5 0 .551.451 1 1 1h12c.551 0 1-.449 1-1 0-2.763-2.237-5-5-5zm-2-2a4 4 0 1 0-.001-8.001A4 4 0 0 0 14 16zm16 4h-1v6h1c.551 0 1-.449 1-1v-4c0-.549-.451-1-1-1zm0-16h-1v6h1c.549 0 1-.451 1-1V5c0-.551-.451-1-1-1zm0 8h-1v6h1c.549 0 1-.449 1-1v-4c0-.549-.451-1-1-1zM23 0H5a4 4 0 0 0-4 4v24a4 4 0 0 0 4 4h18a4 4 0 0 0 4-4V4c0-2.209-1.794-4-4-4zm1 28c0 .551-.449 1-1 1H5c-.551 0-1-.449-1-1V4c0-.551.449-1 1-1h18c.551 0 1 .449 1 1v24z" fill="#00C4CC"/></svg>