<svg width="32" height="32" fill="none" xmlns="http://www.w3.org/2000/svg"><path d="M18.918 4.034A10.303 10.303 0 0 1 24.28 6.84a10.325 10.325 0 0 1 2.92 5.478h-8.283V4.034zm-8.55 2.355v12.8l.838.837 7.434 7.435c-1.4.603-2.911.914-4.468.914-6.24 0-11.315-5.074-11.315-11.314 0-4.85 3.106-9.104 7.512-10.672zm18.244 14.474a11.359 11.359 0 0 1-1.657 3.05l-3.051-3.05h4.708zM17.006 1c-.585 0-.945.446-.945.98V14.6c0 .315.257.572.57.572h12.456c.64 0 1.154-.526 1.145-1.166C30.115 6.806 24.238 1 17.006 1zm-4.703 2.014a.961.961 0 0 0-.131.009C5.32 3.974 0 9.9 0 17.063c0 7.83 6.349 14.172 14.172 14.172a14.1 14.1 0 0 0 8.209-2.617c.454-.326.482-.974.088-1.369l-9.243-9.243V3.932a.907.907 0 0 0-.923-.918zm18.78 14.992H18.387a.57.57 0 0 0-.403.974l8.395 8.395a.88.88 0 0 0 .628.252c.223 0 .45-.078.623-.218a14.154 14.154 0 0 0 4.363-8.403c.072-.537-.365-1-.908-1z" fill="#00C4CC"/></svg>