<svg width="32" height="32" fill="none" xmlns="http://www.w3.org/2000/svg"><path d="M32 14.45c0-2.274-1.113-4.176-2.6-4.648V3.866c0-.72-.404-1.365-1.053-1.679a1.85 1.85 0 0 0-1.97.22l-.056.049A22.107 22.107 0 0 1 12.977 7.94l-2.605.147H3.39A3.39 3.39 0 0 0 0 11.477v5.548a3.39 3.39 0 0 0 3.39 3.39h1.241v7.138a3.31 3.31 0 0 0 3.306 3.306h1.495a3.31 3.31 0 0 0 3.306-3.306v-7.076l.234.015a22.078 22.078 0 0 1 13.346 5.487l.056.048a1.86 1.86 0 0 0 3.024-1.458v-5.47C30.887 18.627 32 16.725 32 14.45zM2.826 17.023v-5.544c0-.31.254-.565.565-.565H9.63v6.677H3.39a.57.57 0 0 1-.564-.568zm6.606 11.011H7.937a.48.48 0 0 1-.48-.48v-7.14h2.455v7.137a.48.48 0 0 1-.48.483zm17.143-5.484a24.947 24.947 0 0 0-13.444-4.88l-.034-.003v-6.903l.042-.003a24.956 24.956 0 0 0 13.439-4.877V22.55h-.003z" fill="#00C4CC"/></svg>