<svg width="12" height="12" fill="none"
    xmlns="http://www.w3.org/2000/svg">
    <path d="M11.662 0L7.837.004A.337.337 0 0 0 7.5.341v.781a.337.337 0 0 0 .344.338l1.726-.064.048.048L3.082 7.98a.281.281 0 0 0 0 .399l.54.539a.281.281 0 0 0 .398 0l6.536-6.536.048.048-.064 1.726a.339.339 0 0 0 .338.344h.78a.338.338 0 0 0 .338-.338L12 .337A.338.338 0 0 0 11.662 0zm-1.537 6.75H9.75a.375.375 0 0 0-.375.375v3.61a.14.14 0 0 1-.14.14h-7.97a.14.14 0 0 1-.14-.14v-7.97a.14.14 0 0 1 .14-.14h3.61a.375.375 0 0 0 .375-.375v-.375a.375.375 0 0 0-.375-.375h-3.75A1.125 1.125 0 0 0 0 2.625v8.25A1.125 1.125 0 0 0 1.125 12h8.25a1.125 1.125 0 0 0 1.125-1.125v-3.75a.375.375 0 0 0-.375-.375z" fill="#4C4C4C"/>
</svg>