<svg width="24" height="32" fill="none"
    xmlns="http://www.w3.org/2000/svg">
    <path d="M22.831 5.837l-4.665-4.666A4.026 4.026 0 0 0 15.337 0H4a4 4 0 0 0-4 4v24a4 4 0 0 0 4 4h16c2.2 0 4-1.8 4-4V8.663c0-1.054-.42-2.074-1.169-2.826zM21 28c0 .551-.449 1-1 1H4c-.551 0-1-.449-1-1V4.009c0-.552.449-1 1-1h10V8c0 1.106.894 2 2 2h4.943v18H21zM6 17.5A1.5 1.5 0 0 0 7.5 19h9c.831 0 1.5-.669 1.5-1.5s-.669-1.5-1.5-1.5h-9c-.826 0-1.5.677-1.5 1.5zM16.5 22h-9a1.501 1.501 0 0 0 0 3h9a1.5 1.5 0 1 0 0-3z" fill="#00C4CC"/>
</svg>