<svg width="66" height="212" xmlns="http://www.w3.org/2000/svg"><g fill="none" fillRule="evenodd"><path d="M67 1v210H6c-1.38 0-2.63-.56-3.536-1.464A4.984 4.984 0 0 1 1 206V6c0-1.38.56-2.63 1.464-3.536A4.984 4.984 0 0 1 6 1h61z" stroke="#00C4CC" stroke-width="2" fill="#FFF"/><g fill="#00C4CC"><path d="M47.333 15.667H20.667C19.194 15.667 18 16.85 18 18.31v17.423c0 1.46 1.194 2.645 2.667 2.645h10.666l-.889 2.644h-4c-.738 0-1.333.59-1.333 1.322 0 .732.595 1.322 1.333 1.322h15.112c.738 0 1.333-.59 1.333-1.322 0-.733-.595-1.322-1.333-1.322h-4l-.89-2.644h10.667c1.473 0 2.667-1.185 2.667-2.645V18.311c0-1.46-1.194-2.644-2.667-2.644zm-.888 19.186h-24.89v-15.66h24.89v15.66z" fillRule="nonzero"/><path d="M17.667 18.28c0-1.627 1.33-2.947 2.97-2.947h26.727c1.64 0 2.97 1.32 2.97 2.946v17.472c0 1.627-1.33 2.946-2.97 2.946h-10.28l.694 2.062h3.795c.904 0 1.633.723 1.633 1.62 0 .898-.729 1.621-1.633 1.621H26.427a1.624 1.624 0 0 1-1.633-1.62c0-.898.729-1.62 1.633-1.62h3.795l.693-2.063H20.636c-1.64 0-2.97-1.32-2.97-2.946V18.28zm2.97-2.357a2.367 2.367 0 0 0-2.376 2.356v17.472a2.367 2.367 0 0 0 2.375 2.357H31.74l-1.089 3.24h-4.223a1.032 1.032 0 1 0 0 2.063h15.146a1.032 1.032 0 1 0 0-2.062H37.35l-1.09-3.241h11.104a2.367 2.367 0 0 0 2.375-2.357V18.28a2.367 2.367 0 0 0-2.375-2.356H20.636zm.593 2.946h25.54v16.293H21.23V18.87zm.594.589v15.115h24.352V19.458H21.824z"/></g><text font-family="YuGo-Bold, YuGothic" font-size="18" font-weight="bold" fill="#00C4CC" transform="translate(2 2)"><tspan x="23" y="66">無</tspan> <tspan x="23" y="84">料</tspan> <tspan x="23" y="102">で</tspan> <tspan x="23" y="120">試</tspan> <tspan x="23" y="138">し</tspan> <tspan x="23" y="156">て</tspan> <tspan x="23" y="174">み</tspan> <tspan x="23" y="192">る</tspan></text></g></svg>