<svg width="223" height="35" fill="none" xmlns="http://www.w3.org/2000/svg">
    <mask id="a" style="mask-type:alpha" maskUnits="userSpaceOnUse" x="0" y="0" width="33" height="35">
        <path fill-rule="evenodd" clip-rule="evenodd" d="M.688 0H32.25v35H.688V0z" fill="#fff" />
    </mask>
    <g mask="url(#a)">
        <path fill-rule="evenodd" clip-rule="evenodd"
            d="M26.98 11.667l4.165-.11.19.182v4.375l-.19.183-4.165-.11h-1.83v12.687h3.06l3.85-.11.19.184v4.302l-.221.255-3.819-.11H17.733l-4.133.11-.221-.219v-4.338l.19-.183 4.164.11h2.936V16.186h-1.39l-4.133.11-.221-.22v-4.3l.19-.22 4.165.11h1.389V1.427l.22-.292h4.04l.22.256v10.276h1.83zm-16.1 5.323l.379.036c1.104.875 2.871 2.552 3.85 3.864l-.032.365-2.65 3.063-.411-.037c-.6-.983-1.356-2.115-2.209-3.135v4.884L9.965 35H5.389l.158-8.97v-3.535a21.727 21.727 0 0 1-1.767 1.823c-.221.182-.379.291-.536.291-.158 0-.317-.11-.443-.328l-2.114-3.61c3.187-2.66 6.627-6.817 8.016-10.572H5.642l-3.85.073-.19-.291V5.65l.19-.22 3.755.11V.255L5.768 0h3.85l.19.292v5.25h.504l1.925-.11 1.673 1.86c.094.11.22.365.22.656 0 .182-.031.328-.094.51-1.105 3.391-2.651 6.235-4.229 8.678v1.093l1.073-1.239z"
            fill="#FEFEFE" />
    </g>
    <mask id="b" style="mask-type:alpha" maskUnits="userSpaceOnUse" x="0" y="0" width="223" height="35">
        <path fill-rule="evenodd" clip-rule="evenodd" d="M0 35h223V0H0v35z" fill="#fff" />
    </mask>
    <g mask="url(#b)" fill-rule="evenodd" clip-rule="evenodd" fill="#FEFEFE">
        <path
            d="M50.256 7.715h10.556V5.723H50.256v1.992zM48.593 26h13.886v-1.35H48.593V26zm0-4.269h13.886V20.38H48.593v1.351zm0-4.27h13.886v-1.386H48.593v1.387zm-2.42-6.083l-.22-.248.094-3.628V5.296l-.094-2.988.22-.25 4.681.108h9.489l4.68-.107.22.249-.094 2.953v2.063l.094 3.806-.22.248-4.68-.106h-9.489l-4.681.106zM63.515 29.45c2.482.463 4.649 1.032 7.1 1.779l.062.355-2.324 3.31-.378.106c-3.172-1.316-6.503-2.419-10.555-3.095l-.063-.285 1.917-2.205h-7.76l2.23 1.85v.39c-2.922 1.638-6.817 2.704-10.65 3.167-.535.071-.597 0-.755-.285l-1.853-3.45c3.52-.32 6.284-.854 8.577-1.672l-4.713.107-.22-.25.095-5.904V17.39l-.094-4.589.22-.249 4.68.107h13.164l4.681-.107.22.25-.094 4.588v5.977l.094 5.904-.22.25-3.361-.072zm57.548-5.43c2.753 1.989 5.019 4.163 7.249 7.258v.296L124.723 35h-.314c-2.231-3.279-4.845-6.043-7.075-7.664v-.331l3.381-2.949.348-.036zm-33.781.17c-.487.56-.813.521-.91.038-.163-.82-.195-1.787-.195-3.761 0-2.458.455-5.547 1.203-8.638.977-3.798 1.4-5.92 1.497-8.078l-.195-.298-4.491-.708-.261.223c-.032 2.197-.357 4.17-.846 6.627-.748 3.426-1.432 7.968-1.432 11.318 0 5.362.912 8.378 1.627 9.756.75 1.488 1.53 2.308 2.832 2.271 1.497-.037 2.213-1.08 2.246-2.755.065-2.345.553-4.691 1.53-7.856l-.945-.559c-.455.745-1.14 1.75-1.66 2.42zm10.755-13.21c3.579 0 7.028-.261 9.49-.727l.197-.233-.197-3.67-.23-.173c-3.283.494-6.14.698-9.26.698-1.019 0-2.07-.029-3.153-.058l-.197.233v3.61l.23.263c1.05.057 2.069.057 3.12.057zm10.753 13.576l-.309-.213c-2.366.497-5.28.745-6.412.745-3.555.027-5.156-.61-6.002-2.44l-4.123 2.216c1.093 2.984 3.346 5.332 8.925 5.332 3.258 0 5.726-.212 8.058-.567l.171-.32-.308-4.753zm52.655-14.262l-.385.019-3.811 2.501-.119.322c2.753 3.74 4.28 6.751 5.74 12.096l.323.16 4.763-2.268.152-.317c-1.541-4.888-3.676-8.784-6.663-12.513zm-15.136 13.784c-.401 0-1.121-.764-1.474-2.149-.449-1.812-.737-3.908-.737-7.036 0-2.06.001-3.84.237-7.838l-.224-.015-4.339-.177h-.225c-.301 4.324-.255 5.58-.255 8.457 0 4.832.865 8.812 1.858 11.05 1.282 2.878 3.108 4.512 5.191 4.512 2.46 0 4.824-2.436 6.671-5.28l-4.063-4.694c-1.341 2.186-2.238 3.17-2.64 3.17zm51.501-13.784l-.384.019-3.812 2.501-.119.322c2.753 3.74 4.28 6.751 5.74 12.096l.323.16 4.763-2.268.153-.317c-1.542-4.888-3.677-8.784-6.664-12.513zm-12.387 13.784c-.401 0-1.122-.764-1.475-2.149-.448-1.812-.737-3.908-.737-7.036 0-2.06.001-3.84.237-7.838l-.224-.015-4.339-.177h-.225c-.301 4.324-.255 5.58-.255 8.457 0 4.832.865 8.812 1.859 11.05 1.281 2.878 3.108 4.512 5.191 4.512 2.46 0 4.823-2.436 6.67-5.28l-4.063-4.694c-1.341 2.186-2.238 3.17-2.639 3.17zm32.087 1.462a2.601 2.601 0 0 0-2.598 2.597 2.601 2.601 0 0 0 2.598 2.598 2.6 2.6 0 0 0 2.597-2.598 2.6 2.6 0 0 0-2.597-2.597zm.001 8.087a5.496 5.496 0 0 1-5.49-5.49 5.496 5.496 0 0 1 5.49-5.49 5.496 5.496 0 0 1 5.489 5.49 5.496 5.496 0 0 1-5.489 5.49z" />
    </g>
</svg>